<svg width="18" height="19" viewBox="0 0 18 19" fill="none" xmlns="http://www.w3.org/2000/svg">
<path d="M4.29838 1.19687C5.46916 0.720475 6.74829 0.574886 7.99617 0.775995C9.24404 0.977104 10.4127 1.51718 11.3746 2.33728C12.3364 3.15737 13.0545 4.22596 13.4505 5.42642C13.8465 6.62687 13.9051 7.91304 13.62 9.14454L17.8024 13.3265L16.6542 14.4741L11.7958 9.61525L11.9402 9.14779C12.2241 8.2303 12.2521 7.25269 12.0211 6.32047C11.7902 5.38824 11.309 4.53679 10.6297 3.858C10.0035 3.23101 9.22947 2.77197 8.37902 2.52331C7.52858 2.27465 6.62918 2.24439 5.76394 2.43532L9.19493 5.86663L5.17804 9.88388L1.74705 6.45095C1.55624 7.31634 1.58663 8.21586 1.83541 9.06639C2.08419 9.91692 2.54333 10.691 3.17041 11.3171C3.84914 11.9966 4.70051 12.4777 5.63265 12.7087C6.5648 12.9397 7.54231 12.9117 8.45972 12.6278L8.92633 12.4833L13.7855 17.343L12.6381 18.4905L8.45566 14.3085C7.22427 14.5937 5.93822 14.5351 4.73787 14.139C3.53753 13.743 2.46904 13.0248 1.64902 12.0629C0.828995 11.1009 0.288967 9.93218 0.0878765 8.68419C-0.113214 7.43621 0.0323616 6.15696 0.508713 4.98608L0.714833 4.47966L2.07165 4.48128L5.17804 7.58796L6.90003 5.86663L3.79364 2.75995L3.79201 1.40301L4.29838 1.19687ZM11.7771 11.3179L15.794 15.3352L14.6465 16.4827L10.6297 12.4655L11.7771 11.3179Z" fill="#8B8B8B"/>
</svg>
