<svg width="334" height="334" viewBox="0 0 334 334" fill="none" xmlns="http://www.w3.org/2000/svg">
<path d="M334 255.443H0V255.61H334V255.443Z" fill="#EBEBEB"/>
<path d="M300.533 266.191H278.409V266.358H300.533V266.191Z" fill="#EBEBEB"/>
<path d="M269.999 266.191H222.698V266.358H269.999V266.191Z" fill="#EBEBEB"/>
<path d="M196.613 259.992H183.794V260.159H196.613V259.992Z" fill="#EBEBEB"/>
<path d="M57.9487 261.115H35.043V261.282H57.9487V261.115Z" fill="#EBEBEB"/>
<path d="M105.544 261.115H63.8945V261.282H105.544V261.115Z" fill="#EBEBEB"/>
<path d="M150.394 263.933H125.805V264.1H150.394V263.933Z" fill="#EBEBEB"/>
<path d="M158.316 225.65H29.332C28.3216 225.649 27.3531 225.246 26.6392 224.531C25.9254 223.816 25.5244 222.847 25.5244 221.836V40.5209C25.5332 39.5162 25.938 38.5556 26.651 37.8477C27.3639 37.1398 28.3273 36.7417 29.332 36.74H158.316C159.328 36.74 160.298 37.1419 161.013 37.8572C161.729 38.5725 162.13 39.5427 162.13 40.5543V221.836C162.13 222.848 161.729 223.818 161.013 224.533C160.298 225.249 159.328 225.65 158.316 225.65ZM29.332 36.8736C28.3659 36.8754 27.4399 37.2604 26.7573 37.9442C26.0748 38.628 25.6914 39.5547 25.6914 40.5209V221.836C25.6914 222.802 26.0748 223.729 26.7573 224.413C27.4399 225.097 28.3659 225.482 29.332 225.483H158.316C159.283 225.482 160.21 225.097 160.893 224.413C161.577 223.73 161.962 222.803 161.963 221.836V40.5209C161.962 39.5541 161.577 38.6274 160.893 37.9438C160.21 37.2602 159.283 36.8754 158.316 36.8736H29.332Z" fill="#EBEBEB"/>
<path d="M302.811 225.65H173.82C172.809 225.649 171.84 225.246 171.125 224.531C170.41 223.816 170.008 222.847 170.006 221.836V40.5209C170.016 39.5156 170.423 38.555 171.137 37.8473C171.851 37.1395 172.815 36.7417 173.82 36.74H302.811C303.814 36.7435 304.776 37.1423 305.488 37.85C306.199 38.5578 306.603 39.5174 306.612 40.5209V221.836C306.612 222.845 306.212 223.814 305.499 224.528C304.787 225.243 303.82 225.647 302.811 225.65ZM173.82 36.8736C172.853 36.8754 171.927 37.2602 171.243 37.9438C170.559 38.6274 170.175 39.5541 170.173 40.5209V221.836C170.175 222.803 170.559 223.73 171.243 224.413C171.927 225.097 172.853 225.482 173.82 225.483H302.811C303.778 225.482 304.704 225.097 305.388 224.413C306.072 223.73 306.456 222.803 306.458 221.836V40.5209C306.456 39.5541 306.072 38.6274 305.388 37.9438C304.704 37.2602 303.778 36.8754 302.811 36.8736H173.82Z" fill="#EBEBEB"/>
<path d="M50.661 129.071H141.309V50.5342L50.661 50.5342L50.661 129.071Z" fill="#E6E6E6"/>
<path d="M48.6376 129.071H139.285V50.5342L48.6376 50.5342L48.6376 129.071Z" fill="#F5F5F5"/>
<path d="M135.671 126.265V53.3398L52.2577 53.3398V126.265H135.671Z" fill="#FAFAFA"/>
<path d="M102.217 126.265L117.334 53.3398H85.7107L70.6006 126.265H102.217Z" fill="white"/>
<path d="M53.7803 126.272L53.7803 53.3464H52.2572L52.2572 126.272H53.7803Z" fill="#E6E6E6"/>
<path d="M50.1331 113.193L137.788 113.193V109.425L50.1331 109.425V113.193Z" fill="#F5F5F5"/>
<path d="M137.101 251.469H151.576V188.697H137.101V251.469Z" fill="#F0F0F0"/>
<path d="M42.5717 255.443H148.804V251.469H42.5717V255.443Z" fill="#F0F0F0"/>
<path d="M137.1 188.69H39.7861V251.462H137.1V188.69Z" fill="#F5F5F5"/>
<path d="M131.416 196.419H45.4775V217.006H131.416V196.419Z" fill="#F0F0F0"/>
<path d="M131.416 223.152H45.4775V243.74H131.416V223.152Z" fill="#F0F0F0"/>
<path d="M65.2835 208.122H111.609C111.983 208.12 112.34 207.971 112.604 207.707C112.868 207.443 113.017 207.086 113.019 206.713C113.017 206.339 112.868 205.98 112.604 205.715C112.341 205.45 111.983 205.3 111.609 205.296H65.2835C64.9096 205.3 64.5521 205.45 64.2884 205.715C64.0246 205.98 63.8758 206.339 63.874 206.713C63.8758 207.086 64.0248 207.443 64.2888 207.707C64.5527 207.971 64.9102 208.12 65.2835 208.122Z" fill="#F5F5F5"/>
<path d="M65.2835 234.855H111.609C111.983 234.854 112.34 234.705 112.604 234.441C112.868 234.177 113.017 233.819 113.019 233.446C113.019 233.072 112.87 232.712 112.606 232.447C112.342 232.182 111.984 232.032 111.609 232.03H65.2835C64.9091 232.032 64.5506 232.182 64.2864 232.447C64.0223 232.712 63.874 233.072 63.874 233.446C63.8758 233.819 64.0248 234.177 64.2888 234.441C64.5527 234.705 64.9102 234.854 65.2835 234.855Z" fill="#F5F5F5"/>
<path d="M288.322 91.5828C296.565 89.3116 299.384 74.355 278.556 68.2495C283.152 83.2929 273.953 95.524 288.322 91.5828Z" fill="#EBEBEB"/>
<path d="M290.145 98.0757C296.645 91.055 290.499 75.17 267.093 81.6629C280.333 93.2461 278.823 110.32 290.145 98.0757Z" fill="#E0E0E0"/>
<path d="M283.733 99.8794C278.296 94.4953 286.085 75.7579 304.041 84.4419C293.867 94.188 293.252 109.265 283.733 99.8794Z" fill="#FAFAFA"/>
<path d="M278.309 110.367H294.134L295.33 99.6589H277.12L278.309 110.367Z" fill="#E6E6E6"/>
<path d="M276.939 101.576H295.51C295.823 101.576 296.124 101.451 296.346 101.23C296.567 101.008 296.692 100.707 296.692 100.394C296.692 100.08 296.567 99.7793 296.346 99.5576C296.124 99.3359 295.823 99.2113 295.51 99.2113H276.939C276.626 99.2113 276.325 99.3359 276.103 99.5576C275.881 99.7793 275.757 100.08 275.757 100.394C275.757 100.707 275.881 101.008 276.103 101.23C276.325 101.451 276.626 101.576 276.939 101.576Z" fill="#E6E6E6"/>
<path d="M145.163 237.307V219.171H160.266V201.041H175.377V182.905H190.48V164.769H205.59V146.639H220.694V128.503H235.804V110.367H250.914H334V255.443H145.163H130.053V237.307H145.163Z" fill="#FAFAFA"/>
<path d="M228.249 237.307V219.171H243.359V201.041H258.463V182.905H273.573V164.769H288.676V146.639H303.786V128.503H318.89V110.367H334V128.503V255.443H228.249H213.146V237.307H228.249Z" fill="#E0E0E0"/>
<path d="M213.145 237.307H129.164V242.745H213.145V237.307Z" fill="#EBEBEB"/>
<path d="M228.255 219.171H144.274V224.608H228.255V219.171Z" fill="#EBEBEB"/>
<path d="M243.359 201.041H159.378V206.479H243.359V201.041Z" fill="#EBEBEB"/>
<path d="M258.469 182.905H174.488V188.343H258.469V182.905Z" fill="#EBEBEB"/>
<path d="M273.573 164.769H189.592V170.206H273.573V164.769Z" fill="#EBEBEB"/>
<path d="M288.683 146.639H204.702V152.077H288.683V146.639Z" fill="#EBEBEB"/>
<path d="M303.787 128.503H219.806V133.941H303.787V128.503Z" fill="#EBEBEB"/>
<path d="M318.897 110.367H234.916V115.804H318.897V110.367Z" fill="#EBEBEB"/>
<path d="M167 285.61C238.531 285.61 296.518 282.225 296.518 278.048C296.518 273.872 238.531 270.487 167 270.487C95.4689 270.487 37.4814 273.872 37.4814 278.048C37.4814 282.225 95.4689 285.61 167 285.61Z" fill="#F5F5F5"/>
<path d="M223.58 105.965C223.46 107.969 223.226 109.806 222.965 111.71C222.705 113.613 222.351 115.477 221.95 117.348C221.169 121.133 220.039 124.838 218.577 128.416L217.969 129.752L217.822 130.086L217.768 130.26L217.662 130.474C217.457 130.893 217.199 131.284 216.893 131.636C216.529 132.046 216.095 132.387 215.611 132.645C215.136 132.894 214.62 133.057 214.088 133.126C213.271 133.213 212.444 133.127 211.663 132.872C210.556 132.494 209.511 131.954 208.563 131.269C207.734 130.684 206.942 130.048 206.192 129.365C203.38 126.758 200.85 123.863 198.644 120.728L200.855 118.851C202.191 120.086 203.527 121.336 204.863 122.518C206.191 123.7 207.578 124.815 209.018 125.858C209.695 126.343 210.4 126.789 211.128 127.194C211.716 127.55 212.35 127.822 213.012 128.002C213.239 128.049 213.4 128.002 213.326 128.002C213.169 128.02 213.021 128.088 212.905 128.196C212.865 128.196 212.865 128.196 212.905 128.196L213.119 127.641L213.587 126.426C214.745 123.078 215.65 119.649 216.292 116.165C216.646 114.415 216.893 112.631 217.161 110.861C217.428 109.091 217.615 107.267 217.768 105.577L223.58 105.965Z" fill="#FFC3BD"/>
<path d="M219.532 98.6101C217.04 99.2447 215.297 109.492 215.297 109.492L222.157 114.168C222.157 114.168 228.737 103.834 226.833 101.095C224.829 98.2294 223.166 97.6883 219.532 98.6101Z" fill="#D0DEFB"/>
<path d="M219.532 98.6101C217.04 99.2447 215.297 109.492 215.297 109.492L222.157 114.168C222.157 114.168 228.737 103.834 226.833 101.095C224.829 98.2294 223.166 97.6883 219.532 98.6101Z" fill="#D0DEFB"/>
<path opacity="0.4" d="M219.532 98.6101C217.04 99.2447 215.297 109.492 215.297 109.492L222.157 114.168C222.157 114.168 228.737 103.834 226.833 101.095C224.829 98.2294 223.166 97.6883 219.532 98.6101Z" fill="black"/>
<path opacity="0.3" d="M219.752 100.901L217.842 111.222L221.696 113.841L219.752 100.901Z" fill="black"/>
<path d="M200.968 118.43L197.728 113.273L195.878 119.131C195.878 119.131 198.55 121.937 200.975 121.269L200.968 118.43Z" fill="#FFC3BD"/>
<path d="M192.918 111.569L191.636 116.553L195.851 119.131L197.701 113.273L192.918 111.569Z" fill="#FFC3BD"/>
<path d="M232.999 271.041H226.96L226.553 257.053H232.598L232.999 271.041Z" fill="#FFC3BD"/>
<path d="M286.298 242.985L281.696 246.899L271.161 237.494L275.764 233.586L286.298 242.985Z" fill="#FFC3BD"/>
<path d="M280.433 246.432L284.902 241.315C284.978 241.227 285.084 241.169 285.2 241.153C285.315 241.137 285.432 241.164 285.53 241.228L290.079 244.174C290.191 244.252 290.286 244.353 290.356 244.47C290.427 244.587 290.471 244.718 290.488 244.853C290.504 244.989 290.492 245.126 290.451 245.257C290.411 245.387 290.343 245.508 290.253 245.61C288.663 247.367 287.808 248.135 285.844 250.38C284.641 251.762 283.018 253.913 281.348 255.817C279.678 257.721 277.701 256.185 278.229 255.236C280.573 251.001 280.012 249.518 280.052 247.434C280.058 247.066 280.193 246.711 280.433 246.432Z" fill="#263238"/>
<path d="M226.753 270.346H233.54C233.657 270.345 233.77 270.387 233.859 270.463C233.947 270.539 234.005 270.645 234.021 270.76L234.796 276.104C234.818 276.246 234.808 276.39 234.767 276.527C234.727 276.664 234.656 276.79 234.561 276.897C234.466 277.004 234.349 277.088 234.217 277.144C234.086 277.2 233.943 277.226 233.801 277.22C231.436 277.18 230.294 277.04 227.308 277.04C225.471 277.04 221.676 277.233 219.138 277.233C216.6 277.233 216.466 274.722 217.528 274.501C222.258 273.479 224.121 272.076 225.718 270.734C226.005 270.484 226.373 270.346 226.753 270.346Z" fill="#263238"/>
<path opacity="0.2" d="M226.559 257.06L226.766 264.267H232.804L232.597 257.06H226.559Z" fill="black"/>
<path opacity="0.2" d="M275.77 233.586L271.161 237.494L276.599 242.344L281.201 238.429L275.77 233.586Z" fill="black"/>
<path d="M219.531 98.6102C219.531 98.6102 216.652 99.6255 222.417 135.07H246.946C246.539 125.083 246.525 118.924 251.295 98.4365C247.861 97.7285 244.381 97.2686 240.881 97.0604C237.171 96.7961 233.448 96.7961 229.738 97.0604C224.956 97.528 219.531 98.6102 219.531 98.6102Z" fill="#D0DEFB"/>
<path opacity="0.4" d="M219.531 98.6102C219.531 98.6102 216.652 99.6255 222.417 135.07H246.946C246.539 125.083 246.525 118.924 251.295 98.4365C247.861 97.7285 244.381 97.2686 240.881 97.0604C237.171 96.7961 233.448 96.7961 229.738 97.0604C224.956 97.528 219.531 98.6102 219.531 98.6102Z" fill="black"/>
<path d="M240.881 97.0604C237.172 96.7961 233.448 96.7961 229.739 97.0604C229.138 97.1138 228.523 97.1806 227.915 97.2541C227.664 97.6338 227.503 98.0661 227.445 98.5178C227.387 98.9695 227.434 99.4285 227.581 99.8593C228.363 101.803 231.182 102.03 233.239 102.03C240.834 102.03 242.117 97.5948 242.17 97.4078L242.244 97.1406C241.816 97.1138 241.335 97.0804 240.881 97.0604Z" fill="white"/>
<path d="M239.813 84.522C239.104 88.1025 238.41 94.6689 240.915 97.0603C240.915 97.0603 239.933 100.701 233.273 100.701C225.925 100.701 229.772 97.067 229.772 97.067C233.78 96.1118 233.667 93.1459 232.972 90.387L239.813 84.522Z" fill="#FFC3BD"/>
<path opacity="0.2" d="M236.987 86.9001L232.938 90.3537C233.113 91.0102 233.229 91.6808 233.286 92.3577C234.809 92.1373 236.906 90.4606 237.073 88.8641C237.167 88.2097 237.138 87.5437 236.987 86.9001Z" fill="black"/>
<path d="M235.611 65.0298C234.989 62.9256 234.468 59.6123 238.209 58.116C236.746 56.3257 236.392 52.959 238.209 50.9617C240.026 48.9644 242.752 49.6992 242.752 49.6992C242.752 49.6992 243.553 44.8161 249.492 45.6912C255.43 46.5662 252.785 50.474 252.785 50.474C252.785 50.474 260.888 48.8708 261.429 56.486C261.97 64.1012 257.321 63.166 257.321 63.166C257.321 63.166 260.935 66.1988 258.931 69.5321C256.927 72.8654 252.297 71.7164 252.297 71.7164C252.297 71.7164 250.12 77.6082 244.989 74.2548C239.859 70.9015 235.611 65.0298 235.611 65.0298Z" fill="#263238"/>
<path d="M223.58 69.472C221.576 72.0638 222.458 74.9963 224.248 76.152C228.556 78.9041 234.789 67.3611 233.166 65.9783C231.542 64.5956 225.584 66.8735 223.58 69.472Z" fill="#263238"/>
<path d="M241.676 63.2997C238.844 62.1574 235.971 63.3531 235.076 65.0766C232.892 69.2783 242.812 76.8468 245.684 71.5963C247.387 68.4767 244.595 64.4754 241.676 63.2997Z" fill="#D0DEFB"/>
<path d="M240.48 76.1519C240.687 82.1639 240.901 84.6756 238.182 88.0223C234.101 93.0523 226.693 91.9969 224.702 86.1853C222.912 80.9549 222.879 72.0371 228.483 69.1112C229.715 68.4595 231.093 68.1336 232.487 68.1643C233.88 68.1951 235.243 68.5816 236.445 69.287C237.647 69.9924 238.648 70.9934 239.355 72.1949C240.061 73.3964 240.449 74.7585 240.48 76.1519Z" fill="#FFC3BD"/>
<path d="M239.578 79.2983C236.906 78.303 236.238 75.1834 236.666 73.9543C235.33 73.9008 232.41 73.4199 231.322 71.7632C229.237 73.0992 224.835 74.4352 224.361 72.2108C223.887 69.9864 230.527 64.2683 235.55 63.8274C241.522 63.3064 247.414 69.1714 245.897 74.7893C244.381 80.4072 239.578 79.2983 239.578 79.2983Z" fill="#263238"/>
<path d="M222.444 135.07C222.444 135.07 217.681 181.596 218.075 200.019C218.489 219.177 225.51 262.871 225.51 262.871H233.673C233.673 262.871 232.383 220.293 233.105 201.482C233.893 180.968 240.406 135.07 240.406 135.07H222.444Z" fill="#263238"/>
<path d="M234.355 263.165H224.775L224.067 260.113L234.802 259.738L234.355 263.165Z" fill="#D0DEFB"/>
<path opacity="0.2" d="M232.999 146.646C226.987 158.764 231.789 180.874 233.92 189.104C235.009 176.746 236.853 161.643 238.289 150.554C237.381 144.288 235.804 141.055 232.999 146.646Z" fill="black"/>
<path d="M228.897 135.07C228.897 135.07 234.455 183.439 238.65 198.97C243.634 217.407 274.582 242.223 274.582 242.223L280.861 236.879C280.861 236.879 258.43 209.919 254.615 200.206C246.486 179.498 253.446 148.583 246.947 135.056L228.897 135.07Z" fill="#263238"/>
<path d="M281.863 236.606L274.074 243.219L271.161 241.475L279.972 233.279L281.863 236.606Z" fill="#D0DEFB"/>
<path d="M231.589 78.6637C231.636 79.1513 231.416 79.5655 231.102 79.5989C230.788 79.6323 230.487 79.2582 230.434 78.7772C230.38 78.2963 230.607 77.8688 230.928 77.842C231.249 77.8153 231.542 78.156 231.589 78.6637Z" fill="#263238"/>
<path d="M226.111 79.1914C226.158 79.6724 225.938 80.0932 225.617 80.1266C225.296 80.16 225.009 79.786 224.949 79.2983C224.889 78.8107 225.123 78.3965 225.437 78.3698C225.751 78.3431 226.064 78.7038 226.111 79.1914Z" fill="#263238"/>
<path d="M225.59 78.3831L224.395 78.156C224.395 78.156 225.116 79.011 225.59 78.3831Z" fill="#263238"/>
<path d="M227.635 79.8861C227.309 81.033 226.828 82.1298 226.205 83.146C226.47 83.2984 226.765 83.3916 227.069 83.4193C227.374 83.447 227.68 83.4084 227.969 83.3063L227.635 79.8861Z" fill="#ED847E"/>
<path d="M230.661 84.9028C230.396 84.9752 230.126 85.0244 229.853 85.0498C229.834 85.0516 229.816 85.0498 229.798 85.0444C229.78 85.039 229.764 85.0301 229.749 85.0183C229.735 85.0065 229.723 84.992 229.715 84.9756C229.706 84.9592 229.701 84.9413 229.699 84.9228C229.695 84.8849 229.706 84.8469 229.73 84.817C229.754 84.7871 229.788 84.7675 229.826 84.7625C230.431 84.718 231.016 84.5323 231.536 84.2202C232.056 83.9081 232.495 83.4784 232.819 82.9656C232.826 82.9479 232.838 82.9321 232.852 82.9192C232.866 82.9063 232.883 82.8967 232.902 82.891C232.92 82.8853 232.939 82.8836 232.959 82.8861C232.978 82.8886 232.996 82.8952 233.012 82.9055C233.045 82.9239 233.07 82.9542 233.081 82.9903C233.092 83.0264 233.089 83.0654 233.072 83.0992C232.534 83.991 231.669 84.6379 230.661 84.9028Z" fill="#263238"/>
<path d="M241.883 80.3002C241.736 81.4498 241.141 82.4946 240.226 83.206C239.004 84.1412 237.828 83.206 237.688 81.7431C237.567 80.4071 238.048 78.4031 239.505 78.0157C239.822 77.9509 240.151 77.9643 240.463 78.0546C240.774 78.1449 241.059 78.3095 241.293 78.5342C241.527 78.7588 241.703 79.0369 241.805 79.3445C241.908 79.6521 241.935 79.9801 241.883 80.3002Z" fill="#FFC3BD"/>
<path d="M232.177 75.2301C232.14 75.2395 232.101 75.2414 232.064 75.2357C232.026 75.2299 231.989 75.2167 231.957 75.1967C231.654 75.0034 231.31 74.8845 230.952 74.8497C230.595 74.8149 230.234 74.8651 229.899 74.9963C229.83 75.0272 229.751 75.0306 229.679 75.0058C229.607 74.981 229.548 74.9299 229.512 74.8627C229.48 74.7944 229.476 74.7162 229.501 74.6449C229.526 74.5737 229.578 74.5151 229.646 74.482C230.066 74.3082 230.522 74.2382 230.976 74.2777C231.429 74.3172 231.866 74.4652 232.251 74.7091C232.282 74.7283 232.31 74.7535 232.332 74.7834C232.354 74.8133 232.37 74.8473 232.378 74.8833C232.387 74.9193 232.388 74.9567 232.383 74.9933C232.377 75.0299 232.364 75.065 232.344 75.0965C232.307 75.1604 232.248 75.2081 232.177 75.2301Z" fill="#263238"/>
<path d="M223.426 76.8935C223.357 76.9197 223.281 76.9197 223.212 76.8935C223.147 76.8556 223.099 76.7944 223.078 76.7223C223.057 76.6503 223.064 76.5729 223.099 76.506C223.302 76.0995 223.601 75.7481 223.97 75.4818C224.339 75.2155 224.766 75.0421 225.216 74.9763C225.253 74.9726 225.291 74.9765 225.327 74.9877C225.363 74.9989 225.396 75.0172 225.425 75.0415C225.454 75.0658 225.477 75.0956 225.494 75.1292C225.511 75.1627 225.521 75.1993 225.523 75.2368C225.529 75.312 225.505 75.3863 225.456 75.4438C225.407 75.5013 225.338 75.5373 225.263 75.5441C224.908 75.6037 224.573 75.7461 224.284 75.9597C223.995 76.1732 223.761 76.452 223.6 76.7732C223.581 76.8043 223.555 76.831 223.525 76.8517C223.496 76.8725 223.462 76.8867 223.426 76.8935Z" fill="#263238"/>
<path d="M253.8 104.949C255.162 108.282 256.337 111.687 257.32 115.15C258.362 118.643 259.104 122.219 259.538 125.838C259.652 126.76 259.685 127.728 259.725 128.684V129.225C259.725 129.418 259.692 129.619 259.665 129.792C259.609 130.126 259.534 130.456 259.438 130.781C259.264 131.337 259.04 131.875 258.77 132.391C257.844 134.104 256.708 135.694 255.39 137.127C252.952 139.806 250.268 142.25 247.374 144.428L245.443 142.284C247.668 139.685 249.912 137.02 251.816 134.268C252.736 133.019 253.52 131.675 254.154 130.26C254.263 129.986 254.352 129.705 254.421 129.418C254.439 129.321 254.451 129.223 254.455 129.124C254.458 129.096 254.458 129.066 254.455 129.038V128.944C254.368 128.156 254.308 127.368 254.161 126.559C253.586 123.259 252.785 120.003 251.763 116.813C250.741 113.58 249.598 110.3 248.423 107.174L253.8 104.949Z" fill="#FFC3BD"/>
<path d="M251.295 98.4364C253.753 99.1846 256.705 107.648 256.705 107.648L247.16 114.462C247.16 114.462 243.679 107.401 244.715 104.221C245.824 100.915 248.496 97.5814 251.295 98.4364Z" fill="#D0DEFB"/>
<path opacity="0.4" d="M251.295 98.4364C253.753 99.1846 256.705 107.648 256.705 107.648L247.16 114.462C247.16 114.462 243.679 107.401 244.715 104.221C245.824 100.915 248.496 97.5814 251.295 98.4364Z" fill="black"/>
<path d="M278.783 249.344C278.659 249.341 278.538 249.31 278.428 249.253C278.318 249.197 278.223 249.116 278.148 249.017C278.088 248.955 278.045 248.877 278.024 248.793C278.002 248.708 278.004 248.62 278.028 248.536C278.255 247.801 280.353 247.2 280.593 247.133C280.619 247.124 280.648 247.123 280.675 247.132C280.701 247.14 280.724 247.157 280.74 247.18C280.755 247.203 280.763 247.23 280.763 247.257C280.763 247.284 280.755 247.311 280.74 247.334C280.366 248.048 279.625 249.251 278.863 249.338L278.783 249.344ZM280.333 247.507C279.504 247.775 278.422 248.235 278.329 248.623C278.319 248.66 278.319 248.698 278.33 248.735C278.34 248.771 278.361 248.804 278.389 248.83C278.442 248.907 278.515 248.968 278.599 249.008C278.683 249.047 278.777 249.065 278.87 249.057C279.257 249.01 279.798 248.436 280.333 247.507Z" fill="#D0DEFB"/>
<path d="M279.672 247.534C279.047 247.598 278.421 247.421 277.921 247.04C277.851 246.951 277.813 246.842 277.813 246.729C277.813 246.616 277.851 246.507 277.921 246.418C277.981 246.326 278.06 246.248 278.154 246.19C278.248 246.132 278.353 246.096 278.462 246.084C279.331 245.978 280.647 247.113 280.7 247.16C280.72 247.176 280.735 247.196 280.743 247.22C280.751 247.244 280.753 247.269 280.747 247.294C280.744 247.32 280.734 247.344 280.717 247.364C280.701 247.385 280.679 247.399 280.654 247.407C280.334 247.498 280.003 247.541 279.672 247.534ZM278.609 246.365H278.516C278.447 246.373 278.382 246.395 278.323 246.431C278.264 246.467 278.214 246.515 278.175 246.572C278.075 246.726 278.108 246.806 278.175 246.859C278.436 247.2 279.625 247.327 280.346 247.193C279.852 246.766 279.252 246.48 278.609 246.365Z" fill="#D0DEFB"/>
<path d="M224.481 271.402C223.965 271.449 223.449 271.317 223.018 271.028C222.927 270.944 222.855 270.84 222.81 270.724C222.765 270.608 222.747 270.484 222.758 270.36C222.763 270.28 222.789 270.204 222.832 270.137C222.875 270.071 222.935 270.016 223.005 269.979C223.747 269.571 226.151 270.8 226.425 270.947C226.451 270.962 226.471 270.984 226.485 271.01C226.498 271.036 226.503 271.065 226.499 271.094C226.495 271.124 226.482 271.151 226.462 271.173C226.441 271.195 226.414 271.209 226.385 271.215C225.758 271.335 225.12 271.398 224.481 271.402ZM223.406 270.153C223.314 270.147 223.222 270.165 223.139 270.206C223.11 270.22 223.086 270.242 223.07 270.269C223.053 270.296 223.045 270.328 223.045 270.36C223.034 270.443 223.044 270.528 223.073 270.607C223.102 270.686 223.15 270.757 223.212 270.814C223.58 271.148 224.548 271.201 225.884 270.981C225.111 270.565 224.273 270.285 223.406 270.153Z" fill="#D0DEFB"/>
<path d="M226.359 271.208H226.299C225.577 270.881 224.155 269.578 224.295 268.897C224.295 268.736 224.435 268.529 224.829 268.489C224.972 268.474 225.115 268.489 225.252 268.531C225.389 268.574 225.515 268.643 225.624 268.736C226.379 269.371 226.519 270.994 226.526 271.068C226.528 271.092 226.523 271.117 226.513 271.139C226.502 271.162 226.486 271.181 226.466 271.195C226.45 271.205 226.432 271.211 226.414 271.213C226.395 271.216 226.377 271.214 226.359 271.208ZM224.916 268.756H224.836C224.569 268.756 224.555 268.89 224.549 268.923C224.482 269.331 225.45 270.36 226.185 270.801C226.125 270.114 225.855 269.463 225.41 268.937C225.275 268.813 225.1 268.741 224.916 268.736V268.756Z" fill="#D0DEFB"/>
<path d="M247.314 133.6L247.942 135.798C248.029 135.965 247.828 136.138 247.541 136.138H222.298C222.077 136.138 221.89 136.031 221.877 135.891L221.656 133.7C221.656 133.546 221.83 133.42 222.077 133.42H246.92C246.996 133.413 247.072 133.426 247.141 133.458C247.21 133.49 247.27 133.538 247.314 133.6Z" fill="#D0DEFB"/>
<path opacity="0.3" d="M247.314 133.6L247.942 135.798C248.029 135.965 247.828 136.138 247.541 136.138H222.298C222.077 136.138 221.89 136.031 221.877 135.891L221.656 133.7C221.656 133.546 221.83 133.42 222.077 133.42H246.92C246.996 133.413 247.072 133.426 247.141 133.458C247.21 133.49 247.27 133.538 247.314 133.6Z" fill="white"/>
<path d="M243.98 136.406H244.648C244.775 136.406 244.875 136.339 244.869 136.252L244.555 133.4C244.555 133.319 244.434 133.246 244.301 133.246H243.633C243.499 133.246 243.399 133.319 243.412 133.4L243.72 136.252C243.733 136.339 243.82 136.406 243.98 136.406Z" fill="#263238"/>
<path d="M224.168 136.406H224.836C224.969 136.406 225.07 136.339 225.063 136.252L224.749 133.4C224.749 133.319 224.622 133.246 224.495 133.246H223.827C223.693 133.246 223.593 133.319 223.6 133.4L223.914 136.252C223.921 136.339 224.034 136.406 224.168 136.406Z" fill="#263238"/>
<path d="M234.074 136.406H234.742C234.876 136.406 234.976 136.339 234.969 136.252L234.655 133.4C234.655 133.319 234.535 133.246 234.401 133.246H233.733C233.6 133.246 233.5 133.319 233.513 133.4L233.8 136.272C233.8 136.339 233.94 136.406 234.074 136.406Z" fill="#263238"/>
<path d="M231.075 77.8554L229.879 77.6283C229.879 77.6283 230.56 78.4833 231.075 77.8554Z" fill="#263238"/>
<path opacity="0.2" d="M208.964 162.918C197.646 167.315 185.279 168.257 173.427 165.626C161.574 162.994 150.768 156.907 142.374 148.134C133.981 139.36 128.378 128.295 126.273 116.338C124.168 104.38 125.657 92.0672 130.55 80.9554C135.443 69.8437 143.521 60.4324 153.763 53.9116C164.005 47.3909 175.95 44.0535 188.088 44.3216C200.227 44.5897 212.013 48.4511 221.957 55.4177C231.901 62.3842 239.556 72.1429 243.954 83.4599C246.875 90.9745 248.287 98.9911 248.109 107.052C247.932 115.112 246.168 123.059 242.919 130.437C239.669 137.816 234.998 144.482 229.172 150.056C223.346 155.629 216.479 160 208.964 162.918Z" fill="#D0DEFB"/>
<path opacity="0.1" d="M197.856 45.3238L149.706 154.675C148.965 154.114 148.23 153.533 147.508 152.945C142.855 149.095 138.802 144.572 135.484 139.525L177.074 45.0699C183.964 43.9602 190.994 44.046 197.856 45.3238Z" fill="white"/>
<path opacity="0.1" d="M232.084 64.295L186.813 167.107C177.41 167.117 168.13 164.964 159.692 160.814L209.124 48.5436C217.882 51.9685 225.736 57.3572 232.084 64.295Z" fill="white"/>
<path d="M136.192 64.3417C144.372 54.3465 155.332 47.0014 167.687 43.2353C180.041 39.4691 193.235 39.4511 205.6 43.1834C217.965 46.9158 228.945 54.2309 237.153 64.2037C245.36 74.1765 250.426 86.3591 251.709 99.211C252.993 112.063 250.437 125.007 244.364 136.406C238.291 147.805 228.974 157.147 217.592 163.251C206.21 169.355 193.273 171.947 180.417 170.699C167.562 169.451 155.366 164.418 145.37 156.239C131.968 145.268 123.472 129.424 121.751 112.191C120.03 94.9573 125.224 77.7458 136.192 64.3417ZM233.132 143.673C240.641 134.495 245.259 123.296 246.403 111.493C247.548 99.6898 245.166 87.8124 239.56 77.3626C233.954 66.9128 225.376 58.36 214.909 52.7856C204.442 47.2112 192.558 44.8656 180.758 46.0454C168.959 47.2252 157.774 51.8774 148.618 59.4137C139.462 66.95 132.747 77.032 129.321 88.3848C125.895 99.7376 125.912 111.851 129.37 123.194C132.829 134.537 139.573 144.6 148.75 152.11C154.845 157.097 161.862 160.835 169.401 163.11C176.94 165.386 184.853 166.153 192.689 165.37C200.525 164.586 208.129 162.267 215.069 158.544C222.008 154.822 228.146 149.769 233.132 143.673Z" fill="#D0DEFB"/>
<path d="M238.897 143.446C245.33 147.287 251.449 151.509 257.461 155.864C263.473 160.22 269.331 164.756 275.096 169.411C280.861 174.067 286.519 178.857 291.976 183.887C294.711 186.399 297.383 188.977 299.992 191.622C302.611 194.294 305.183 196.966 307.607 199.866C308.168 200.537 308.476 201.382 308.481 202.257C308.485 203.131 308.185 203.979 307.631 204.656C307.078 205.333 306.306 205.796 305.448 205.965C304.59 206.134 303.7 205.999 302.931 205.584C299.591 203.78 296.465 201.789 293.346 199.752C290.226 197.715 287.18 195.59 284.174 193.406C278.162 189.051 272.344 184.461 266.646 179.725C260.948 174.989 255.336 170.146 249.879 165.11C244.421 160.073 239.071 154.916 234.034 149.371C233.405 148.686 233.044 147.796 233.018 146.866C232.992 145.936 233.302 145.028 233.891 144.308C234.481 143.587 235.31 143.104 236.227 142.946C237.144 142.788 238.087 142.965 238.884 143.446H238.897Z" fill="#D0DEFB"/>
<path d="M246.085 141.616L239.632 142.598L244.248 146.646C244.248 146.646 247.895 145.31 248.256 142.838L246.085 141.616Z" fill="#FFC3BD"/>
<path d="M236.145 146.305L240.199 149.485L245.149 146.252L239.631 142.611L236.145 146.305Z" fill="#FFC3BD"/>
<path d="M205.637 153.339C206.227 151.73 207.289 150.338 208.686 149.344C210.082 148.351 211.746 147.804 213.46 147.775H266.933C267.857 147.74 268.777 147.909 269.629 148.269C270.481 148.629 271.243 149.171 271.862 149.858C272.481 150.545 272.942 151.359 273.213 152.243C273.483 153.128 273.556 154.06 273.426 154.976L259.612 270.881C259.319 272.854 258.333 274.658 256.831 275.971C255.33 277.285 253.41 278.021 251.415 278.048H81.7433C80.8225 278.083 79.9051 277.916 79.0558 277.559C78.2065 277.201 77.4459 276.661 76.8275 275.978C76.2092 275.295 75.7481 274.484 75.4768 273.604C75.2055 272.723 75.1305 271.793 75.2571 270.881L86.8402 173.5C87.1333 171.526 88.1189 169.722 89.6205 168.409C91.1221 167.096 93.0419 166.359 95.0365 166.332H187.367C191.368 166.264 195.255 164.986 198.516 162.667C201.777 160.348 204.26 157.096 205.637 153.339Z" fill="#D0DEFB"/>
<path d="M78.3096 272.711H255.603L265.704 153.42H88.4164L78.3096 272.711Z" fill="#F0F0F0"/>
<path d="M78.3096 272.711H255.603L262.911 153.42H88.4164L78.3096 272.711Z" fill="#E0E0E0"/>
<path d="M78.3096 272.711H255.603L261.696 149.632H84.4084L78.3096 272.711Z" fill="#F0F0F0"/>
<path d="M78.3096 272.711H255.603L258.015 149.632H84.4084L78.3096 272.711Z" fill="#E0E0E0"/>
<path d="M78.3096 272.711H255.603L256.659 146.292H79.3717L78.3096 272.711Z" fill="#F0F0F0"/>
<path d="M78.31 272.711H255.604L251.963 148.683H75.8184L78.31 272.711Z" fill="#E0E0E0"/>
<path d="M78.3099 272.711H255.604L250.34 149.632H73.0527L78.3099 272.711Z" fill="#F0F0F0"/>
<path d="M78.3103 272.711H255.604L247.221 151.489H69.9336L78.3103 272.711Z" fill="#E0E0E0"/>
<path d="M78.3104 272.711H255.604L245.885 152.524H68.5977L78.3104 272.711Z" fill="#F0F0F0"/>
<path d="M167.094 160.868C167.104 160.093 167.27 159.328 167.581 158.618C167.893 157.908 168.344 157.268 168.908 156.737C169.472 156.205 170.138 155.792 170.865 155.523C171.591 155.254 172.365 155.134 173.139 155.17H226.613C228.683 155.249 230.668 156.014 232.257 157.344C233.846 158.674 234.948 160.494 235.39 162.518L256.519 270.734C257.307 274.788 254.662 278.082 250.607 278.082H80.9353C76.8738 278.082 72.9193 274.788 72.1511 270.734L54.7229 181.522C53.9347 177.467 56.58 174.174 60.6347 174.174H152.972C160.988 174.174 166.82 168.657 167.094 160.868Z" fill="#D0DEFB"/>
<path opacity="0.2" d="M167.094 160.868C167.104 160.093 167.27 159.328 167.581 158.618C167.893 157.908 168.344 157.268 168.908 156.737C169.472 156.205 170.138 155.792 170.865 155.523C171.591 155.254 172.365 155.134 173.139 155.17H226.613C228.683 155.249 230.668 156.014 232.257 157.344C233.846 158.674 234.948 160.494 235.39 162.518L256.519 270.734C257.307 274.788 254.662 278.082 250.607 278.082H80.9353C76.8738 278.082 72.9193 274.788 72.1511 270.734L54.7229 181.522C53.9347 177.467 56.58 174.174 60.6347 174.174H152.972C160.988 174.174 166.82 168.657 167.094 160.868Z" fill="black"/>
</svg>
