<svg width="16" height="16" viewBox="0 0 16 16" fill="none" xmlns="http://www.w3.org/2000/svg">
<path d="M12.0723 11.865V10.0737C12.0723 9.96981 12.0333 9.87895 11.9555 9.80106C11.8776 9.72318 11.7867 9.68423 11.6828 9.68423C11.579 9.68423 11.4881 9.72318 11.4102 9.80106C11.3324 9.87895 11.2934 9.96981 11.2934 10.0737V11.865C11.2934 11.9689 11.3129 12.0662 11.3518 12.1571C11.3908 12.248 11.4492 12.3323 11.5271 12.4102L12.7148 13.598C12.7927 13.6759 12.8836 13.7148 12.9874 13.7148C13.0913 13.7148 13.1821 13.6759 13.26 13.598C13.3379 13.5201 13.3769 13.4292 13.3769 13.3254C13.3769 13.2215 13.3379 13.1307 13.26 13.0528L12.0723 11.865ZM1.55771 14.3574C1.12934 14.3574 0.762502 14.2047 0.45719 13.8994C0.151878 13.5941 -0.000517915 13.2275 1.32234e-06 12.7997V1.89567C1.32234e-06 1.46729 0.152657 1.10045 0.457969 0.795142C0.763281 0.48983 1.12986 0.337434 1.55771 0.337953H12.4617C12.8901 0.337953 13.2569 0.490609 13.5622 0.795921C13.8675 1.10123 14.0199 1.46781 14.0194 1.89567V7.11401C13.7728 6.99718 13.5197 6.89644 13.26 6.81181C13.0004 6.72717 12.7343 6.66564 12.4617 6.62722V1.89567H1.55771V12.7997H6.2698C6.30874 13.0852 6.37053 13.3578 6.45516 13.6175C6.5398 13.8771 6.64027 14.1237 6.75658 14.3574H1.55771ZM1.55771 12.0208V12.7997V1.89567V6.62722V6.56881V12.0208ZM3.11543 10.4631C3.11543 10.6838 3.1902 10.8689 3.33974 11.0184C3.48928 11.168 3.67413 11.2425 3.89428 11.2419H6.28927C6.32821 10.9693 6.39 10.7032 6.47464 10.4436C6.55927 10.184 6.65325 9.93087 6.75658 9.68423H3.89428C3.67361 9.68423 3.4885 9.759 3.33896 9.90854C3.18942 10.0581 3.11491 10.2429 3.11543 10.4631ZM3.11543 7.34766C3.11543 7.56834 3.1902 7.75345 3.33974 7.90299C3.48928 8.05253 3.67413 8.12704 3.89428 8.12652H7.86645C8.28184 7.73709 8.74604 7.41257 9.25905 7.15295C9.77205 6.89333 10.3204 6.71809 10.904 6.62722C10.7872 6.60126 10.6574 6.5849 10.5146 6.57815C10.3718 6.5714 10.242 6.56829 10.1251 6.56881H3.89428C3.67361 6.56881 3.4885 6.64358 3.33896 6.79312C3.18942 6.94266 3.11491 7.12751 3.11543 7.34766ZM3.11543 4.23224C3.11543 4.45291 3.1902 4.63802 3.33974 4.78756C3.48928 4.9371 3.67413 5.01161 3.89428 5.01109H10.1251C10.3458 5.01109 10.5309 4.93632 10.6805 4.78678C10.83 4.63724 10.9045 4.45239 10.904 4.23224C10.904 4.01156 10.8292 3.82645 10.6797 3.67691C10.5301 3.52737 10.3453 3.45286 10.1251 3.45338H3.89428C3.67361 3.45338 3.4885 3.52815 3.33896 3.67769C3.18942 3.82723 3.11491 4.01208 3.11543 4.23224ZM11.6828 15.9151C10.6054 15.9151 9.6869 15.5353 8.92726 14.7756C8.16761 14.016 7.78805 13.0977 7.78857 12.0208C7.78857 10.9434 8.16839 10.0249 8.92803 9.26521C9.68768 8.50556 10.606 8.126 11.6828 8.12652C12.7603 8.12652 13.6788 8.50634 14.4384 9.26599C15.1981 10.0256 15.5777 10.9439 15.5771 12.0208C15.5771 13.0982 15.1973 14.0168 14.4377 14.7764C13.678 15.536 12.7597 15.9156 11.6828 15.9151Z" fill="#8B8B8B"/>
</svg>
