<svg width="16" height="21" viewBox="0 0 16 21" fill="none" xmlns="http://www.w3.org/2000/svg">
<path d="M14.8691 1.91697H12.4794V1.02287C12.4794 0.924524 12.3998 0.844055 12.3024 0.844055H11.0633C10.9659 0.844055 10.8863 0.924524 10.8863 1.02287V1.91697H7.52305V1.02287C7.52305 0.924524 7.44339 0.844055 7.34603 0.844055H6.10694C6.00959 0.844055 5.92993 0.924524 5.92993 1.02287V1.91697H3.54026C3.14862 1.91697 2.83221 2.23661 2.83221 2.63225V5.31453H0.708052C0.316411 5.31453 0 5.63417 0 6.02981V20.1565C0 20.5522 0.316411 20.8718 0.708052 20.8718H12.0369C12.4285 20.8718 12.7449 20.5522 12.7449 20.1565V18.0107H14.8691C15.2607 18.0107 15.5771 17.6911 15.5771 17.2954V2.63225C15.5771 2.23661 15.2607 1.91697 14.8691 1.91697ZM11.1518 19.2624H1.59312V6.92391H6.41672V10.8132C6.41672 11.3072 6.81278 11.7073 7.30178 11.7073H11.1518V19.2624ZM11.1518 10.2768H7.83282V6.92391H7.83725L11.1518 10.2723V10.2768ZM13.984 16.4013H12.7449V9.60619L8.49662 5.31453H4.42532V3.52634H5.92993V4.24162C5.92993 4.33997 6.00959 4.42044 6.10694 4.42044H7.34603C7.44339 4.42044 7.52305 4.33997 7.52305 4.24162V3.52634H10.8863V4.24162C10.8863 4.33997 10.9659 4.42044 11.0633 4.42044H12.3024C12.3998 4.42044 12.4794 4.33997 12.4794 4.24162V3.52634H13.984V16.4013Z" fill="#414142"/>
</svg>
