<svg width="25" height="25" viewBox="0 0 25 25" fill="none" xmlns="http://www.w3.org/2000/svg">
<g id="ic:round-switch-access-shortcut-add" clip-path="url(#clip0_2862_3004)">
<path id="Vector" d="M21.1991 18.9497C21.7491 18.9497 22.1991 18.4997 22.1991 17.9497V16.9497H23.1991C23.7491 16.9497 24.1991 16.4997 24.1991 15.9497C24.1991 15.3997 23.7491 14.9497 23.1991 14.9497H22.1991V13.9497C22.1991 13.3997 21.7491 12.9497 21.1991 12.9497C20.6491 12.9497 20.1991 13.3997 20.1991 13.9497V14.9497H19.1991C18.6491 14.9497 18.1991 15.3997 18.1991 15.9497C18.1991 16.4997 18.6491 16.9497 19.1991 16.9497H20.1991V17.9497C20.1991 18.4997 20.6491 18.9497 21.1991 18.9497ZM7.2591 9.88966L5.1991 8.94966L7.2591 8.00966L8.1991 5.94966L9.1391 8.00966L11.1991 8.94966L9.1391 9.88966L8.1991 11.9497L7.2591 9.88966ZM8.1991 21.9497L9.1391 19.8897L11.1991 18.9497L9.1391 18.0097L8.1991 15.9497L7.2591 18.0097L5.1991 18.9497L7.2591 19.8897L8.1991 21.9497ZM4.5691 13.3197L3.1991 13.9497L4.5691 14.5797L5.1991 15.9497L5.8291 14.5797L7.1991 13.9497L5.8291 13.3197L5.1991 11.9497L4.5691 13.3197ZM19.1991 21.3597C19.1991 21.5362 19.1523 21.7095 19.0636 21.8621C18.9749 22.0147 18.8474 22.1411 18.694 22.2284C18.5406 22.3158 18.3669 22.361 18.1904 22.3595C18.0139 22.3579 17.8409 22.3097 17.6891 22.2197C14.4091 20.3097 12.1991 16.7397 12.1991 12.9497C12.1991 10.2197 13.2791 7.67966 14.9491 5.69966L13.0491 3.79966C12.98 3.72917 12.9333 3.63979 12.9149 3.54281C12.8965 3.44582 12.9073 3.34556 12.9458 3.25466C12.9842 3.16376 13.0488 3.08629 13.1312 3.03201C13.2137 2.97774 13.3104 2.94908 13.4091 2.94966H18.6991C18.9791 2.94966 19.1991 3.16966 19.1991 3.44966V8.73966C19.1991 9.18966 18.6591 9.40966 18.3491 9.08966L16.3791 7.11966C15.0391 8.76966 14.1991 10.8297 14.1991 12.9497C14.1991 16.0797 16.0591 18.9597 18.7091 20.4997C19.0091 20.6797 19.1991 21.0097 19.1991 21.3597Z" fill="white"/>
</g>
<defs>
<clipPath id="clip0_2862_3004">
<rect width="24" height="24" fill="white" transform="translate(0.199097 0.949661)"/>
</clipPath>
</defs>
</svg>
