<svg width="93" height="35" viewBox="0 0 93 35" fill="none" xmlns="http://www.w3.org/2000/svg">
<path d="M30.2109 3.32959H10.4854V23.0551L30.2109 3.32959Z" fill="#121215"/>
<path d="M31.5361 2.00391H11.8105V21.7294L31.5361 2.00391Z" fill="#266EFF"/>
<path d="M1.50483 11.5732L0 13.0778L0.000143974 32.6562H19.8729L21.0831 31.446H1.50483V11.5732Z" fill="#121215"/>
<path d="M6.92182 6.55591L5.41699 8.06047L5.41714 27.6389H25.2899L26.5001 26.4286H6.92182V6.55591Z" fill="#121215"/>
<path d="M51.118 8.97C51.1033 8.54467 51.0153 8.178 50.854 7.87C50.6927 7.54733 50.4727 7.28333 50.194 7.078C49.93 6.87267 49.622 6.726 49.27 6.638C48.918 6.53533 48.544 6.484 48.148 6.484C47.84 6.484 47.5247 6.52067 47.202 6.594C46.894 6.65267 46.608 6.76267 46.344 6.924C46.08 7.07067 45.8673 7.26867 45.706 7.518C45.5447 7.76733 45.464 8.07533 45.464 8.442C45.464 8.75 45.5373 9.014 45.684 9.234C45.8453 9.43933 46.0433 9.61533 46.278 9.762C46.5127 9.90867 46.7693 10.0333 47.048 10.136C47.3267 10.224 47.5833 10.2973 47.818 10.356L49.666 10.774C50.062 10.8327 50.4507 10.9427 50.832 11.104C51.228 11.2507 51.5727 11.4487 51.866 11.698C52.174 11.9473 52.4233 12.2553 52.614 12.622C52.8047 12.9887 52.9 13.4213 52.9 13.92C52.9 14.536 52.7607 15.064 52.482 15.504C52.2033 15.9293 51.844 16.2813 51.404 16.56C50.9787 16.824 50.4947 17.0147 49.952 17.132C49.4093 17.2493 48.874 17.308 48.346 17.308C47.0113 17.308 45.926 16.9927 45.09 16.362C44.2687 15.7313 43.7993 14.7193 43.682 13.326H45.068C45.1267 14.2647 45.464 14.976 46.08 15.46C46.7107 15.9293 47.488 16.164 48.412 16.164C48.7493 16.164 49.094 16.1273 49.446 16.054C49.8127 15.9807 50.15 15.856 50.458 15.68C50.766 15.504 51.0153 15.284 51.206 15.02C51.4113 14.7413 51.514 14.404 51.514 14.008C51.514 13.6707 51.4407 13.392 51.294 13.172C51.162 12.9373 50.9787 12.7467 50.744 12.6C50.5093 12.4387 50.238 12.3067 49.93 12.204C49.6367 12.1013 49.336 12.0133 49.028 11.94L47.246 11.544C46.7913 11.4267 46.3733 11.2947 45.992 11.148C45.6107 10.9867 45.2733 10.796 44.98 10.576C44.7013 10.3413 44.4813 10.0627 44.32 9.74C44.1587 9.40267 44.078 8.992 44.078 8.508C44.078 7.936 44.2027 7.44467 44.452 7.034C44.716 6.62333 45.0533 6.29333 45.464 6.044C45.8747 5.79467 46.3293 5.61133 46.828 5.494C47.3413 5.37667 47.8473 5.318 48.346 5.318C48.918 5.318 49.446 5.39133 49.93 5.538C50.4287 5.68467 50.8613 5.912 51.228 6.22C51.6093 6.528 51.91 6.90933 52.13 7.364C52.35 7.81867 52.4747 8.354 52.504 8.97H51.118ZM54.2298 5.648H55.6158V7.606H55.6598C55.9238 6.91667 56.3931 6.36667 57.0678 5.956C57.7425 5.53067 58.4831 5.318 59.2898 5.318C60.0818 5.318 60.7418 5.42067 61.2698 5.626C61.8125 5.83133 62.2451 6.12467 62.5678 6.506C62.8905 6.87267 63.1178 7.32733 63.2498 7.87C63.3818 8.41267 63.4478 9.02133 63.4478 9.696V17H62.0618V9.916C62.0618 9.432 62.0178 8.98467 61.9298 8.574C61.8418 8.14867 61.6878 7.782 61.4678 7.474C61.2478 7.166 60.9471 6.924 60.5658 6.748C60.1991 6.572 59.7371 6.484 59.1798 6.484C58.6225 6.484 58.1238 6.58667 57.6838 6.792C57.2585 6.98267 56.8918 7.254 56.5838 7.606C56.2905 7.94333 56.0558 8.354 55.8798 8.838C55.7185 9.30733 55.6305 9.82067 55.6158 10.378V17H54.2298V5.648ZM65.4302 1.292H66.8162V3.514H65.4302V1.292ZM65.4302 5.648H66.8162V17H65.4302V5.648ZM68.8088 5.648H70.0848V7.804H70.1288C70.4514 7.012 70.9721 6.40333 71.6908 5.978C72.4241 5.538 73.2528 5.318 74.1768 5.318C75.0421 5.318 75.7901 5.47933 76.4208 5.802C77.0661 6.12467 77.6014 6.56467 78.0268 7.122C78.4521 7.66467 78.7674 8.30267 78.9728 9.036C79.1781 9.75467 79.2808 10.5173 79.2808 11.324C79.2808 12.1307 79.1781 12.9007 78.9728 13.634C78.7674 14.3527 78.4521 14.9907 78.0268 15.548C77.6014 16.0907 77.0661 16.5233 76.4208 16.846C75.7901 17.154 75.0421 17.308 74.1768 17.308C73.7661 17.308 73.3554 17.2567 72.9448 17.154C72.5341 17.0513 72.1528 16.8973 71.8008 16.692C71.4488 16.4867 71.1334 16.23 70.8548 15.922C70.5908 15.614 70.3854 15.2547 70.2388 14.844H70.1948V21.18H68.8088V5.648ZM77.8948 11.324C77.8948 10.7373 77.8214 10.158 77.6748 9.586C77.5428 8.99933 77.3228 8.47867 77.0148 8.024C76.7214 7.56933 76.3401 7.20267 75.8708 6.924C75.4014 6.63067 74.8368 6.484 74.1768 6.484C73.4141 6.484 72.7761 6.616 72.2628 6.88C71.7494 7.144 71.3388 7.496 71.0308 7.936C70.7228 8.376 70.5028 8.88933 70.3708 9.476C70.2534 10.0627 70.1948 10.6787 70.1948 11.324C70.1948 11.9107 70.2608 12.4973 70.3928 13.084C70.5394 13.656 70.7668 14.1693 71.0748 14.624C71.3974 15.0787 71.8081 15.4527 72.3068 15.746C72.8201 16.0247 73.4434 16.164 74.1768 16.164C74.8368 16.164 75.4014 16.0247 75.8708 15.746C76.3401 15.4527 76.7214 15.0787 77.0148 14.624C77.3228 14.1693 77.5428 13.656 77.6748 13.084C77.8214 12.4973 77.8948 11.9107 77.8948 11.324ZM80.7816 5.648H82.0576V7.804H82.1016C82.4242 7.012 82.9449 6.40333 83.6636 5.978C84.3969 5.538 85.2256 5.318 86.1496 5.318C87.0149 5.318 87.7629 5.47933 88.3936 5.802C89.0389 6.12467 89.5742 6.56467 89.9996 7.122C90.4249 7.66467 90.7402 8.30267 90.9456 9.036C91.1509 9.75467 91.2536 10.5173 91.2536 11.324C91.2536 12.1307 91.1509 12.9007 90.9456 13.634C90.7402 14.3527 90.4249 14.9907 89.9996 15.548C89.5742 16.0907 89.0389 16.5233 88.3936 16.846C87.7629 17.154 87.0149 17.308 86.1496 17.308C85.7389 17.308 85.3282 17.2567 84.9176 17.154C84.5069 17.0513 84.1256 16.8973 83.7736 16.692C83.4216 16.4867 83.1062 16.23 82.8276 15.922C82.5636 15.614 82.3582 15.2547 82.2116 14.844H82.1676V21.18H80.7816V5.648ZM89.8676 11.324C89.8676 10.7373 89.7942 10.158 89.6476 9.586C89.5156 8.99933 89.2956 8.47867 88.9876 8.024C88.6942 7.56933 88.3129 7.20267 87.8436 6.924C87.3742 6.63067 86.8096 6.484 86.1496 6.484C85.3869 6.484 84.7489 6.616 84.2356 6.88C83.7222 7.144 83.3116 7.496 83.0036 7.936C82.6956 8.376 82.4756 8.88933 82.3436 9.476C82.2262 10.0627 82.1676 10.6787 82.1676 11.324C82.1676 11.9107 82.2336 12.4973 82.3656 13.084C82.5122 13.656 82.7396 14.1693 83.0476 14.624C83.3702 15.0787 83.7809 15.4527 84.2796 15.746C84.7929 16.0247 85.4162 16.164 86.1496 16.164C86.8096 16.164 87.3742 16.0247 87.8436 15.746C88.3129 15.4527 88.6942 15.0787 88.9876 14.624C89.2956 14.1693 89.5156 13.656 89.6476 13.084C89.7942 12.4973 89.8676 11.9107 89.8676 11.324ZM44.408 22.626H46.168V24.298H46.212C47.0627 23.0073 48.2873 22.362 49.886 22.362C50.59 22.362 51.228 22.5087 51.8 22.802C52.372 23.0953 52.7753 23.594 53.01 24.298C53.3913 23.682 53.89 23.2053 54.506 22.868C55.1367 22.5307 55.826 22.362 56.574 22.362C57.146 22.362 57.6593 22.428 58.114 22.56C58.5833 22.6773 58.9793 22.868 59.302 23.132C59.6393 23.396 59.896 23.7407 60.072 24.166C60.2627 24.5767 60.358 25.0753 60.358 25.662V34H58.488V26.542C58.488 26.19 58.4587 25.86 58.4 25.552C58.3413 25.244 58.2313 24.98 58.07 24.76C57.9087 24.5253 57.6813 24.342 57.388 24.21C57.1093 24.078 56.7427 24.012 56.288 24.012C55.364 24.012 54.638 24.276 54.11 24.804C53.582 25.332 53.318 26.036 53.318 26.916V34H51.448V26.542C51.448 26.1753 51.4113 25.838 51.338 25.53C51.2793 25.222 51.1693 24.958 51.008 24.738C50.8467 24.5033 50.6267 24.3273 50.348 24.21C50.084 24.078 49.7393 24.012 49.314 24.012C48.7713 24.012 48.302 24.122 47.906 24.342C47.5247 24.562 47.2093 24.826 46.96 25.134C46.7253 25.442 46.5493 25.7647 46.432 26.102C46.3293 26.4247 46.278 26.696 46.278 26.916V34H44.408V22.626ZM72.5799 33.956C72.2572 34.1467 71.8099 34.242 71.2379 34.242C70.7539 34.242 70.3652 34.11 70.0719 33.846C69.7932 33.5673 69.6539 33.12 69.6539 32.504C69.1405 33.12 68.5392 33.5673 67.8499 33.846C67.1752 34.11 66.4419 34.242 65.6499 34.242C65.1365 34.242 64.6452 34.1833 64.1759 34.066C63.7212 33.9487 63.3252 33.7653 62.9879 33.516C62.6505 33.2667 62.3792 32.944 62.1739 32.548C61.9832 32.1373 61.8879 31.646 61.8879 31.074C61.8879 30.4287 61.9979 29.9007 62.2179 29.49C62.4379 29.0793 62.7239 28.7493 63.0759 28.5C63.4425 28.236 63.8532 28.038 64.3079 27.906C64.7772 27.774 65.2539 27.664 65.7379 27.576C66.2512 27.4733 66.7352 27.4 67.1899 27.356C67.6592 27.2973 68.0699 27.224 68.4219 27.136C68.7739 27.0333 69.0525 26.894 69.2579 26.718C69.4632 26.5273 69.5659 26.256 69.5659 25.904C69.5659 25.4933 69.4852 25.1633 69.3239 24.914C69.1772 24.6647 68.9792 24.474 68.7299 24.342C68.4952 24.21 68.2239 24.122 67.9159 24.078C67.6225 24.034 67.3292 24.012 67.0359 24.012C66.2439 24.012 65.5839 24.166 65.0559 24.474C64.5279 24.7673 64.2419 25.332 64.1979 26.168H62.3279C62.3572 25.464 62.5039 24.87 62.7679 24.386C63.0319 23.902 63.3839 23.5133 63.8239 23.22C64.2639 22.912 64.7625 22.692 65.3199 22.56C65.8919 22.428 66.5005 22.362 67.1459 22.362C67.6592 22.362 68.1652 22.3987 68.6639 22.472C69.1772 22.5453 69.6392 22.6993 70.0499 22.934C70.4605 23.154 70.7905 23.4693 71.0399 23.88C71.2892 24.2907 71.4139 24.826 71.4139 25.486V31.338C71.4139 31.778 71.4359 32.1007 71.4799 32.306C71.5385 32.5113 71.7145 32.614 72.0079 32.614C72.1692 32.614 72.3599 32.5773 72.5799 32.504V33.956ZM69.5439 28.126C69.3092 28.302 69.0012 28.434 68.6199 28.522C68.2385 28.5953 67.8352 28.6613 67.4099 28.72C66.9992 28.764 66.5812 28.8227 66.1559 28.896C65.7305 28.9547 65.3492 29.0573 65.0119 29.204C64.6745 29.3507 64.3959 29.5633 64.1759 29.842C63.9705 30.106 63.8679 30.4727 63.8679 30.942C63.8679 31.25 63.9265 31.514 64.0439 31.734C64.1759 31.9393 64.3372 32.108 64.5279 32.24C64.7332 32.372 64.9679 32.4673 65.2319 32.526C65.4959 32.5847 65.7745 32.614 66.0679 32.614C66.6839 32.614 67.2119 32.5333 67.6519 32.372C68.0919 32.196 68.4512 31.9833 68.7299 31.734C69.0085 31.47 69.2139 31.1913 69.3459 30.898C69.4779 30.59 69.5439 30.304 69.5439 30.04V28.126ZM76.2563 22.626H78.5223V24.276H76.2563V31.338C76.2563 31.558 76.2709 31.734 76.3003 31.866C76.3443 31.998 76.4176 32.1007 76.5203 32.174C76.6229 32.2473 76.7623 32.2987 76.9383 32.328C77.1289 32.3427 77.3709 32.35 77.6643 32.35H78.5223V34H77.0923C76.6083 34 76.1903 33.9707 75.8383 33.912C75.5009 33.8387 75.2223 33.714 75.0023 33.538C74.7969 33.362 74.6429 33.1127 74.5403 32.79C74.4376 32.4673 74.3863 32.042 74.3863 31.514V24.276H72.4503V22.626H74.3863V19.216H76.2563V22.626ZM87.8377 27.224C87.8084 26.784 87.7057 26.366 87.5297 25.97C87.3684 25.574 87.1411 25.2367 86.8477 24.958C86.5691 24.6647 86.2317 24.4373 85.8357 24.276C85.4544 24.1 85.0291 24.012 84.5597 24.012C84.0757 24.012 83.6357 24.1 83.2397 24.276C82.8584 24.4373 82.5284 24.6647 82.2497 24.958C81.9711 25.2513 81.7511 25.596 81.5897 25.992C81.4284 26.3733 81.3331 26.784 81.3037 27.224H87.8377ZM89.6417 30.392C89.3924 31.668 88.8424 32.6287 87.9917 33.274C87.1411 33.9193 86.0704 34.242 84.7797 34.242C83.8704 34.242 83.0784 34.0953 82.4037 33.802C81.7437 33.5087 81.1864 33.098 80.7317 32.57C80.2771 32.042 79.9324 31.4113 79.6977 30.678C79.4777 29.9447 79.3531 29.1453 79.3237 28.28C79.3237 27.4147 79.4557 26.6227 79.7197 25.904C79.9837 25.1853 80.3504 24.562 80.8197 24.034C81.3037 23.506 81.8684 23.0953 82.5137 22.802C83.1737 22.5087 83.8924 22.362 84.6697 22.362C85.6817 22.362 86.5177 22.5747 87.1777 23C87.8524 23.4107 88.3877 23.9387 88.7837 24.584C89.1944 25.2293 89.4731 25.9333 89.6197 26.696C89.7811 27.4587 89.8471 28.1847 89.8177 28.874H81.3037C81.2891 29.3727 81.3477 29.8493 81.4797 30.304C81.6117 30.744 81.8244 31.14 82.1177 31.492C82.4111 31.8293 82.7851 32.1007 83.2397 32.306C83.6944 32.5113 84.2297 32.614 84.8457 32.614C85.6377 32.614 86.2831 32.4307 86.7817 32.064C87.2951 31.6973 87.6324 31.14 87.7937 30.392H89.6417Z" fill="#121215"/>
</svg>
