<svg width="407" height="606" viewBox="0 0 407 606" fill="none" xmlns="http://www.w3.org/2000/svg">
<rect width="407" height="606" rx="40" fill="#266EFF"/>
<path d="M40.99 474.29C40.99 475.37 41.13 476.44 41.41 477.5C41.69 478.54 42.13 479.48 42.73 480.32C43.33 481.16 44.1 481.84 45.04 482.36C45.98 482.86 47.1 483.11 48.4 483.11C49.7 483.11 50.82 482.86 51.76 482.36C52.7 481.84 53.47 481.16 54.07 480.32C54.67 479.48 55.11 478.54 55.39 477.5C55.67 476.44 55.81 475.37 55.81 474.29C55.81 473.21 55.67 472.15 55.39 471.11C55.11 470.05 54.67 469.1 54.07 468.26C53.47 467.42 52.7 466.75 51.76 466.25C50.82 465.73 49.7 465.47 48.4 465.47C47.1 465.47 45.98 465.73 45.04 466.25C44.1 466.75 43.33 467.42 42.73 468.26C42.13 469.1 41.69 470.05 41.41 471.11C41.13 472.15 40.99 473.21 40.99 474.29ZM38.14 474.29C38.14 472.83 38.35 471.43 38.77 470.09C39.21 468.73 39.86 467.53 40.72 466.49C41.58 465.45 42.65 464.62 43.93 464C45.21 463.38 46.7 463.07 48.4 463.07C50.1 463.07 51.59 463.38 52.87 464C54.15 464.62 55.22 465.45 56.08 466.49C56.94 467.53 57.58 468.73 58 470.09C58.44 471.43 58.66 472.83 58.66 474.29C58.66 475.75 58.44 477.16 58 478.52C57.58 479.86 56.94 481.05 56.08 482.09C55.22 483.13 54.15 483.96 52.87 484.58C51.59 485.18 50.1 485.48 48.4 485.48C46.7 485.48 45.21 485.18 43.93 484.58C42.65 483.96 41.58 483.13 40.72 482.09C39.86 481.05 39.21 479.86 38.77 478.52C38.35 477.16 38.14 475.75 38.14 474.29ZM60.723 469.49H63.123V472.76H63.183C63.803 471.5 64.563 470.57 65.463 469.97C66.363 469.37 67.503 469.09 68.883 469.13V471.83C67.863 471.83 66.993 471.97 66.273 472.25C65.553 472.53 64.973 472.94 64.533 473.48C64.093 474.02 63.773 474.68 63.573 475.46C63.373 476.22 63.273 477.1 63.273 478.1V485H60.723V469.49ZM82.4336 483.68C82.4336 486.22 81.8536 488.12 80.6936 489.38C79.5336 490.64 77.7136 491.27 75.2336 491.27C74.5136 491.27 73.7736 491.19 73.0136 491.03C72.2736 490.87 71.5936 490.61 70.9736 490.25C70.3736 489.89 69.8736 489.42 69.4736 488.84C69.0736 488.26 68.8536 487.55 68.8136 486.71H71.3636C71.3836 487.17 71.5236 487.56 71.7836 487.88C72.0636 488.2 72.3936 488.46 72.7736 488.66C73.1736 488.86 73.6036 489 74.0636 489.08C74.5236 489.18 74.9636 489.23 75.3836 489.23C76.2236 489.23 76.9336 489.08 77.5136 488.78C78.0936 488.5 78.5736 488.1 78.9536 487.58C79.3336 487.08 79.6036 486.47 79.7636 485.75C79.9436 485.03 80.0336 484.24 80.0336 483.38V482.36H79.9736C79.5336 483.32 78.8636 484.03 77.9636 484.49C77.0836 484.93 76.1436 485.15 75.1436 485.15C73.9836 485.15 72.9736 484.94 72.1136 484.52C71.2536 484.1 70.5336 483.54 69.9536 482.84C69.3736 482.12 68.9336 481.29 68.6336 480.35C68.3536 479.39 68.2136 478.38 68.2136 477.32C68.2136 476.4 68.3336 475.46 68.5736 474.5C68.8136 473.52 69.2136 472.64 69.7736 471.86C70.3336 471.06 71.0736 470.41 71.9936 469.91C72.9136 469.39 74.0436 469.13 75.3836 469.13C76.3636 469.13 77.2636 469.35 78.0836 469.79C78.9036 470.21 79.5436 470.85 80.0036 471.71H80.0336V469.49H82.4336V483.68ZM75.2936 482.93C76.1336 482.93 76.8436 482.76 77.4236 482.42C78.0236 482.06 78.5036 481.6 78.8636 481.04C79.2236 480.46 79.4836 479.81 79.6436 479.09C79.8236 478.37 79.9136 477.65 79.9136 476.93C79.9136 476.25 79.8336 475.58 79.6736 474.92C79.5136 474.26 79.2536 473.67 78.8936 473.15C78.5536 472.61 78.1036 472.18 77.5436 471.86C76.9836 471.54 76.3036 471.38 75.5036 471.38C74.6836 471.38 73.9836 471.54 73.4036 471.86C72.8236 472.16 72.3436 472.57 71.9636 473.09C71.6036 473.61 71.3336 474.21 71.1536 474.89C70.9936 475.57 70.9136 476.28 70.9136 477.02C70.9136 477.72 70.9836 478.42 71.1236 479.12C71.2636 479.82 71.5036 480.46 71.8436 481.04C72.1836 481.6 72.6336 482.06 73.1936 482.42C73.7536 482.76 74.4536 482.93 75.2936 482.93ZM99.1202 484.94C98.6802 485.2 98.0702 485.33 97.2902 485.33C96.6302 485.33 96.1002 485.15 95.7002 484.79C95.3202 484.41 95.1302 483.8 95.1302 482.96C94.4302 483.8 93.6102 484.41 92.6702 484.79C91.7502 485.15 90.7502 485.33 89.6702 485.33C88.9702 485.33 88.3002 485.25 87.6602 485.09C87.0402 484.93 86.5002 484.68 86.0402 484.34C85.5802 484 85.2102 483.56 84.9302 483.02C84.6702 482.46 84.5402 481.79 84.5402 481.01C84.5402 480.13 84.6902 479.41 84.9902 478.85C85.2902 478.29 85.6802 477.84 86.1602 477.5C86.6602 477.14 87.2202 476.87 87.8402 476.69C88.4802 476.51 89.1302 476.36 89.7902 476.24C90.4902 476.1 91.1502 476 91.7702 475.94C92.4102 475.86 92.9702 475.76 93.4502 475.64C93.9302 475.5 94.3102 475.31 94.5902 475.07C94.8702 474.81 95.0102 474.44 95.0102 473.96C95.0102 473.4 94.9002 472.95 94.6802 472.61C94.4802 472.27 94.2102 472.01 93.8702 471.83C93.5502 471.65 93.1802 471.53 92.7602 471.47C92.3602 471.41 91.9602 471.38 91.5602 471.38C90.4802 471.38 89.5802 471.59 88.8602 472.01C88.1402 472.41 87.7502 473.18 87.6902 474.32H85.1402C85.1802 473.36 85.3802 472.55 85.7402 471.89C86.1002 471.23 86.5802 470.7 87.1802 470.3C87.7802 469.88 88.4602 469.58 89.2202 469.4C90.0002 469.22 90.8302 469.13 91.7102 469.13C92.4102 469.13 93.1002 469.18 93.7802 469.28C94.4802 469.38 95.1102 469.59 95.6702 469.91C96.2302 470.21 96.6802 470.64 97.0202 471.2C97.3602 471.76 97.5302 472.49 97.5302 473.39V481.37C97.5302 481.97 97.5602 482.41 97.6202 482.69C97.7002 482.97 97.9402 483.11 98.3402 483.11C98.5602 483.11 98.8202 483.06 99.1202 482.96V484.94ZM94.9802 476.99C94.6602 477.23 94.2402 477.41 93.7202 477.53C93.2002 477.63 92.6502 477.72 92.0702 477.8C91.5102 477.86 90.9402 477.94 90.3602 478.04C89.7802 478.12 89.2602 478.26 88.8002 478.46C88.3402 478.66 87.9602 478.95 87.6602 479.33C87.3802 479.69 87.2402 480.19 87.2402 480.83C87.2402 481.25 87.3202 481.61 87.4802 481.91C87.6602 482.19 87.8802 482.42 88.1402 482.6C88.4202 482.78 88.7402 482.91 89.1002 482.99C89.4602 483.07 89.8402 483.11 90.2402 483.11C91.0802 483.11 91.8002 483 92.4002 482.78C93.0002 482.54 93.4902 482.25 93.8702 481.91C94.2502 481.55 94.5302 481.17 94.7102 480.77C94.8902 480.35 94.9802 479.96 94.9802 479.6V476.99ZM100.593 469.49H102.993V471.95H103.053C104.113 470.07 105.793 469.13 108.093 469.13C109.113 469.13 109.963 469.27 110.643 469.55C111.323 469.83 111.873 470.22 112.293 470.72C112.713 471.22 113.003 471.82 113.163 472.52C113.343 473.2 113.433 473.96 113.433 474.8V485H110.883V474.5C110.883 473.54 110.603 472.78 110.043 472.22C109.483 471.66 108.713 471.38 107.733 471.38C106.953 471.38 106.273 471.5 105.693 471.74C105.133 471.98 104.663 472.32 104.283 472.76C103.903 473.2 103.613 473.72 103.413 474.32C103.233 474.9 103.143 475.54 103.143 476.24V485H100.593V469.49ZM119.063 466.7H116.513V463.58H119.063V466.7ZM116.513 469.49H119.063V485H116.513V469.49ZM123.674 480.11C123.694 480.67 123.824 481.15 124.064 481.55C124.304 481.93 124.614 482.24 124.994 482.48C125.394 482.7 125.834 482.86 126.314 482.96C126.814 483.06 127.324 483.11 127.844 483.11C128.244 483.11 128.664 483.08 129.104 483.02C129.544 482.96 129.944 482.85 130.304 482.69C130.684 482.53 130.994 482.3 131.234 482C131.474 481.68 131.594 481.28 131.594 480.8C131.594 480.14 131.344 479.64 130.844 479.3C130.344 478.96 129.714 478.69 128.954 478.49C128.214 478.27 127.404 478.08 126.524 477.92C125.644 477.74 124.824 477.5 124.064 477.2C123.324 476.88 122.704 476.44 122.204 475.88C121.704 475.32 121.454 474.54 121.454 473.54C121.454 472.76 121.624 472.09 121.964 471.53C122.324 470.97 122.774 470.52 123.314 470.18C123.874 469.82 124.494 469.56 125.174 469.4C125.874 469.22 126.564 469.13 127.244 469.13C128.124 469.13 128.934 469.21 129.674 469.37C130.414 469.51 131.064 469.77 131.624 470.15C132.204 470.51 132.664 471.01 133.004 471.65C133.344 472.27 133.544 473.05 133.604 473.99H131.054C131.014 473.49 130.884 473.08 130.664 472.76C130.444 472.42 130.164 472.15 129.824 471.95C129.484 471.75 129.104 471.61 128.684 471.53C128.284 471.43 127.874 471.38 127.454 471.38C127.074 471.38 126.684 471.41 126.284 471.47C125.904 471.53 125.554 471.64 125.234 471.8C124.914 471.94 124.654 472.14 124.454 472.4C124.254 472.64 124.154 472.96 124.154 473.36C124.154 473.8 124.304 474.17 124.604 474.47C124.924 474.75 125.324 474.99 125.804 475.19C126.284 475.37 126.824 475.53 127.424 475.67C128.024 475.79 128.624 475.92 129.224 476.06C129.864 476.2 130.484 476.37 131.084 476.57C131.704 476.77 132.244 477.04 132.704 477.38C133.184 477.7 133.564 478.11 133.844 478.61C134.144 479.11 134.294 479.73 134.294 480.47C134.294 481.41 134.094 482.19 133.694 482.81C133.314 483.43 132.804 483.93 132.164 484.31C131.544 484.69 130.834 484.95 130.034 485.09C129.254 485.25 128.474 485.33 127.694 485.33C126.834 485.33 126.014 485.24 125.234 485.06C124.454 484.88 123.764 484.59 123.164 484.19C122.564 483.77 122.084 483.23 121.724 482.57C121.364 481.89 121.164 481.07 121.124 480.11H123.674ZM146.984 475.76C146.944 475.16 146.804 474.59 146.564 474.05C146.344 473.51 146.034 473.05 145.634 472.67C145.254 472.27 144.794 471.96 144.254 471.74C143.734 471.5 143.154 471.38 142.514 471.38C141.854 471.38 141.254 471.5 140.714 471.74C140.194 471.96 139.744 472.27 139.364 472.67C138.984 473.07 138.684 473.54 138.464 474.08C138.244 474.6 138.114 475.16 138.074 475.76H146.984ZM149.444 480.08C149.104 481.82 148.354 483.13 147.194 484.01C146.034 484.89 144.574 485.33 142.814 485.33C141.574 485.33 140.494 485.13 139.574 484.73C138.674 484.33 137.914 483.77 137.294 483.05C136.674 482.33 136.204 481.47 135.884 480.47C135.584 479.47 135.414 478.38 135.374 477.2C135.374 476.02 135.554 474.94 135.914 473.96C136.274 472.98 136.774 472.13 137.414 471.41C138.074 470.69 138.844 470.13 139.724 469.73C140.624 469.33 141.604 469.13 142.664 469.13C144.044 469.13 145.184 469.42 146.084 470C147.004 470.56 147.734 471.28 148.274 472.16C148.834 473.04 149.214 474 149.414 475.04C149.634 476.08 149.724 477.07 149.684 478.01H138.074C138.054 478.69 138.134 479.34 138.314 479.96C138.494 480.56 138.784 481.1 139.184 481.58C139.584 482.04 140.094 482.41 140.714 482.69C141.334 482.97 142.064 483.11 142.904 483.11C143.984 483.11 144.864 482.86 145.544 482.36C146.244 481.86 146.704 481.1 146.924 480.08H149.444ZM151.997 481.67H155.327V485H151.997V481.67ZM39.4 499.58H43.3L50.05 517.58L56.83 499.58H60.73V521H58.03V503.18H57.97L51.28 521H48.85L42.16 503.18H42.1V521H39.4V499.58ZM74.9228 511.76C74.8828 511.16 74.7428 510.59 74.5028 510.05C74.2828 509.51 73.9728 509.05 73.5728 508.67C73.1928 508.27 72.7328 507.96 72.1928 507.74C71.6728 507.5 71.0928 507.38 70.4528 507.38C69.7928 507.38 69.1928 507.5 68.6528 507.74C68.1328 507.96 67.6828 508.27 67.3028 508.67C66.9228 509.07 66.6228 509.54 66.4028 510.08C66.1828 510.6 66.0528 511.16 66.0128 511.76H74.9228ZM77.3828 516.08C77.0428 517.82 76.2928 519.13 75.1328 520.01C73.9728 520.89 72.5128 521.33 70.7528 521.33C69.5128 521.33 68.4328 521.13 67.5128 520.73C66.6128 520.33 65.8528 519.77 65.2328 519.05C64.6128 518.33 64.1428 517.47 63.8228 516.47C63.5228 515.47 63.3528 514.38 63.3128 513.2C63.3128 512.02 63.4928 510.94 63.8528 509.96C64.2128 508.98 64.7128 508.13 65.3528 507.41C66.0128 506.69 66.7828 506.13 67.6628 505.73C68.5628 505.33 69.5428 505.13 70.6028 505.13C71.9828 505.13 73.1228 505.42 74.0228 506C74.9428 506.56 75.6728 507.28 76.2128 508.16C76.7728 509.04 77.1528 510 77.3528 511.04C77.5728 512.08 77.6628 513.07 77.6228 514.01H66.0128C65.9928 514.69 66.0728 515.34 66.2528 515.96C66.4328 516.56 66.7228 517.1 67.1228 517.58C67.5228 518.04 68.0328 518.41 68.6528 518.69C69.2728 518.97 70.0028 519.11 70.8428 519.11C71.9228 519.11 72.8028 518.86 73.4828 518.36C74.1828 517.86 74.6428 517.1 74.8628 516.08H77.3828ZM79.3661 505.49H81.7661V507.77H81.8261C82.9861 506.01 84.6561 505.13 86.8361 505.13C87.7961 505.13 88.6661 505.33 89.4461 505.73C90.2261 506.13 90.7761 506.81 91.0961 507.77C91.6161 506.93 92.2961 506.28 93.1361 505.82C93.9961 505.36 94.9361 505.13 95.9561 505.13C96.7361 505.13 97.4361 505.22 98.0561 505.4C98.6961 505.56 99.2361 505.82 99.6761 506.18C100.136 506.54 100.486 507.01 100.726 507.59C100.986 508.15 101.116 508.83 101.116 509.63V521H98.5661V510.83C98.5661 510.35 98.5261 509.9 98.4461 509.48C98.3661 509.06 98.2161 508.7 97.9961 508.4C97.7761 508.08 97.4661 507.83 97.0661 507.65C96.6861 507.47 96.1861 507.38 95.5661 507.38C94.3061 507.38 93.3161 507.74 92.5961 508.46C91.8761 509.18 91.5161 510.14 91.5161 511.34V521H88.9661V510.83C88.9661 510.33 88.9161 509.87 88.8161 509.45C88.7361 509.03 88.5861 508.67 88.3661 508.37C88.1461 508.05 87.8461 507.81 87.4661 507.65C87.1061 507.47 86.6361 507.38 86.0561 507.38C85.3161 507.38 84.6761 507.53 84.1361 507.83C83.6161 508.13 83.1861 508.49 82.8461 508.91C82.5261 509.33 82.2861 509.77 82.1261 510.23C81.9861 510.67 81.9161 511.04 81.9161 511.34V521H79.3661V505.49ZM105.902 513.26C105.902 514.2 106.022 515.04 106.262 515.78C106.522 516.5 106.872 517.11 107.312 517.61C107.752 518.09 108.262 518.46 108.842 518.72C109.442 518.98 110.072 519.11 110.732 519.11C111.392 519.11 112.012 518.98 112.592 518.72C113.192 518.46 113.712 518.09 114.152 517.61C114.592 517.11 114.932 516.5 115.172 515.78C115.432 515.04 115.562 514.2 115.562 513.26C115.562 512.32 115.432 511.49 115.172 510.77C114.932 510.03 114.592 509.41 114.152 508.91C113.712 508.41 113.192 508.03 112.592 507.77C112.012 507.51 111.392 507.38 110.732 507.38C110.072 507.38 109.442 507.51 108.842 507.77C108.262 508.03 107.752 508.41 107.312 508.91C106.872 509.41 106.522 510.03 106.262 510.77C106.022 511.49 105.902 512.32 105.902 513.26ZM103.202 513.26C103.202 512.12 103.362 511.06 103.682 510.08C104.002 509.08 104.482 508.22 105.122 507.5C105.762 506.76 106.552 506.18 107.492 505.76C108.432 505.34 109.512 505.13 110.732 505.13C111.972 505.13 113.052 505.34 113.972 505.76C114.912 506.18 115.702 506.76 116.342 507.5C116.982 508.22 117.462 509.08 117.782 510.08C118.102 511.06 118.262 512.12 118.262 513.26C118.262 514.4 118.102 515.46 117.782 516.44C117.462 517.42 116.982 518.28 116.342 519.02C115.702 519.74 114.912 520.31 113.972 520.73C113.052 521.13 111.972 521.33 110.732 521.33C109.512 521.33 108.432 521.13 107.492 520.73C106.552 520.31 105.762 519.74 105.122 519.02C104.482 518.28 104.002 517.42 103.682 516.44C103.362 515.46 103.202 514.4 103.202 513.26ZM120.279 505.49H122.679V508.76H122.739C123.359 507.5 124.119 506.57 125.019 505.97C125.919 505.37 127.059 505.09 128.439 505.13V507.83C127.419 507.83 126.549 507.97 125.829 508.25C125.109 508.53 124.529 508.94 124.089 509.48C123.649 510.02 123.329 510.68 123.129 511.46C122.929 512.22 122.829 513.1 122.829 514.1V521H120.279V505.49ZM132.159 502.7H129.609V499.58H132.159V502.7ZM129.609 505.49H132.159V521H129.609V505.49ZM136.769 516.11C136.789 516.67 136.919 517.15 137.159 517.55C137.399 517.93 137.709 518.24 138.089 518.48C138.489 518.7 138.929 518.86 139.409 518.96C139.909 519.06 140.419 519.11 140.939 519.11C141.339 519.11 141.759 519.08 142.199 519.02C142.639 518.96 143.039 518.85 143.399 518.69C143.779 518.53 144.089 518.3 144.329 518C144.569 517.68 144.689 517.28 144.689 516.8C144.689 516.14 144.439 515.64 143.939 515.3C143.439 514.96 142.809 514.69 142.049 514.49C141.309 514.27 140.499 514.08 139.619 513.92C138.739 513.74 137.919 513.5 137.159 513.2C136.419 512.88 135.799 512.44 135.299 511.88C134.799 511.32 134.549 510.54 134.549 509.54C134.549 508.76 134.719 508.09 135.059 507.53C135.419 506.97 135.869 506.52 136.409 506.18C136.969 505.82 137.589 505.56 138.269 505.4C138.969 505.22 139.659 505.13 140.339 505.13C141.219 505.13 142.029 505.21 142.769 505.37C143.509 505.51 144.159 505.77 144.719 506.15C145.299 506.51 145.759 507.01 146.099 507.65C146.439 508.27 146.639 509.05 146.699 509.99H144.149C144.109 509.49 143.979 509.08 143.759 508.76C143.539 508.42 143.259 508.15 142.919 507.95C142.579 507.75 142.199 507.61 141.779 507.53C141.379 507.43 140.969 507.38 140.549 507.38C140.169 507.38 139.779 507.41 139.379 507.47C138.999 507.53 138.649 507.64 138.329 507.8C138.009 507.94 137.749 508.14 137.549 508.4C137.349 508.64 137.249 508.96 137.249 509.36C137.249 509.8 137.399 510.17 137.699 510.47C138.019 510.75 138.419 510.99 138.899 511.19C139.379 511.37 139.919 511.53 140.519 511.67C141.119 511.79 141.719 511.92 142.319 512.06C142.959 512.2 143.579 512.37 144.179 512.57C144.799 512.77 145.339 513.04 145.799 513.38C146.279 513.7 146.659 514.11 146.939 514.61C147.239 515.11 147.389 515.73 147.389 516.47C147.389 517.41 147.189 518.19 146.789 518.81C146.409 519.43 145.899 519.93 145.259 520.31C144.639 520.69 143.929 520.95 143.129 521.09C142.349 521.25 141.569 521.33 140.789 521.33C139.929 521.33 139.109 521.24 138.329 521.06C137.549 520.88 136.859 520.59 136.259 520.19C135.659 519.77 135.179 519.23 134.819 518.57C134.459 517.89 134.259 517.07 134.219 516.11H136.769ZM160.079 511.76C160.039 511.16 159.899 510.59 159.659 510.05C159.439 509.51 159.129 509.05 158.729 508.67C158.349 508.27 157.889 507.96 157.349 507.74C156.829 507.5 156.249 507.38 155.609 507.38C154.949 507.38 154.349 507.5 153.809 507.74C153.289 507.96 152.839 508.27 152.459 508.67C152.079 509.07 151.779 509.54 151.559 510.08C151.339 510.6 151.209 511.16 151.169 511.76H160.079ZM162.539 516.08C162.199 517.82 161.449 519.13 160.289 520.01C159.129 520.89 157.669 521.33 155.909 521.33C154.669 521.33 153.589 521.13 152.669 520.73C151.769 520.33 151.009 519.77 150.389 519.05C149.769 518.33 149.299 517.47 148.979 516.47C148.679 515.47 148.509 514.38 148.469 513.2C148.469 512.02 148.649 510.94 149.009 509.96C149.369 508.98 149.869 508.13 150.509 507.41C151.169 506.69 151.939 506.13 152.819 505.73C153.719 505.33 154.699 505.13 155.759 505.13C157.139 505.13 158.279 505.42 159.179 506C160.099 506.56 160.829 507.28 161.369 508.16C161.929 509.04 162.309 510 162.509 511.04C162.729 512.08 162.819 513.07 162.779 514.01H151.169C151.149 514.69 151.229 515.34 151.409 515.96C151.589 516.56 151.879 517.1 152.279 517.58C152.679 518.04 153.189 518.41 153.809 518.69C154.429 518.97 155.159 519.11 155.999 519.11C157.079 519.11 157.959 518.86 158.639 518.36C159.339 517.86 159.799 517.1 160.019 516.08H162.539ZM165.093 517.67H168.423V521H165.093V517.67ZM39.4 535.58H43.3L50.05 553.58L56.83 535.58H60.73V557H58.03V539.18H57.97L51.28 557H48.85L42.16 539.18H42.1V557H39.4V535.58ZM77.8928 556.94C77.4528 557.2 76.8428 557.33 76.0628 557.33C75.4028 557.33 74.8728 557.15 74.4728 556.79C74.0928 556.41 73.9028 555.8 73.9028 554.96C73.2028 555.8 72.3828 556.41 71.4428 556.79C70.5228 557.15 69.5228 557.33 68.4428 557.33C67.7428 557.33 67.0728 557.25 66.4328 557.09C65.8128 556.93 65.2728 556.68 64.8128 556.34C64.3528 556 63.9828 555.56 63.7028 555.02C63.4428 554.46 63.3128 553.79 63.3128 553.01C63.3128 552.13 63.4628 551.41 63.7628 550.85C64.0628 550.29 64.4528 549.84 64.9328 549.5C65.4328 549.14 65.9928 548.87 66.6128 548.69C67.2528 548.51 67.9028 548.36 68.5628 548.24C69.2628 548.1 69.9228 548 70.5428 547.94C71.1828 547.86 71.7428 547.76 72.2228 547.64C72.7028 547.5 73.0828 547.31 73.3628 547.07C73.6428 546.81 73.7828 546.44 73.7828 545.96C73.7828 545.4 73.6728 544.95 73.4528 544.61C73.2528 544.27 72.9828 544.01 72.6428 543.83C72.3228 543.65 71.9528 543.53 71.5328 543.47C71.1328 543.41 70.7328 543.38 70.3328 543.38C69.2528 543.38 68.3528 543.59 67.6328 544.01C66.9128 544.41 66.5228 545.18 66.4628 546.32H63.9128C63.9528 545.36 64.1528 544.55 64.5128 543.89C64.8728 543.23 65.3528 542.7 65.9528 542.3C66.5528 541.88 67.2328 541.58 67.9928 541.4C68.7728 541.22 69.6028 541.13 70.4828 541.13C71.1828 541.13 71.8728 541.18 72.5528 541.28C73.2528 541.38 73.8828 541.59 74.4428 541.91C75.0028 542.21 75.4528 542.64 75.7928 543.2C76.1328 543.76 76.3028 544.49 76.3028 545.39V553.37C76.3028 553.97 76.3328 554.41 76.3928 554.69C76.4728 554.97 76.7128 555.11 77.1128 555.11C77.3328 555.11 77.5928 555.06 77.8928 554.96V556.94ZM73.7528 548.99C73.4328 549.23 73.0128 549.41 72.4928 549.53C71.9728 549.63 71.4228 549.72 70.8428 549.8C70.2828 549.86 69.7128 549.94 69.1328 550.04C68.5528 550.12 68.0328 550.26 67.5728 550.46C67.1128 550.66 66.7328 550.95 66.4328 551.33C66.1528 551.69 66.0128 552.19 66.0128 552.83C66.0128 553.25 66.0928 553.61 66.2528 553.91C66.4328 554.19 66.6528 554.42 66.9128 554.6C67.1928 554.78 67.5128 554.91 67.8728 554.99C68.2328 555.07 68.6128 555.11 69.0128 555.11C69.8528 555.11 70.5728 555 71.1728 554.78C71.7728 554.54 72.2628 554.25 72.6428 553.91C73.0228 553.55 73.3028 553.17 73.4828 552.77C73.6628 552.35 73.7528 551.96 73.7528 551.6V548.99ZM83.5361 548.84L78.1361 541.49H81.4061L85.1261 546.92L88.9961 541.49H92.0561L86.7161 548.63L92.7161 557H89.4461L85.1261 550.58L80.8061 557H77.7161L83.5361 548.84ZM96.6934 538.7H94.1434V535.58H96.6934V538.7ZM94.1434 541.49H96.6934V557H94.1434V541.49ZM99.7438 541.49H102.144V543.77H102.204C103.364 542.01 105.034 541.13 107.214 541.13C108.174 541.13 109.044 541.33 109.824 541.73C110.604 542.13 111.154 542.81 111.474 543.77C111.994 542.93 112.674 542.28 113.514 541.82C114.374 541.36 115.314 541.13 116.334 541.13C117.114 541.13 117.814 541.22 118.434 541.4C119.074 541.56 119.614 541.82 120.054 542.18C120.514 542.54 120.864 543.01 121.104 543.59C121.364 544.15 121.494 544.83 121.494 545.63V557H118.944V546.83C118.944 546.35 118.904 545.9 118.824 545.48C118.744 545.06 118.594 544.7 118.374 544.4C118.154 544.08 117.844 543.83 117.444 543.65C117.064 543.47 116.564 543.38 115.944 543.38C114.684 543.38 113.694 543.74 112.974 544.46C112.254 545.18 111.894 546.14 111.894 547.34V557H109.344V546.83C109.344 546.33 109.294 545.87 109.194 545.45C109.114 545.03 108.964 544.67 108.744 544.37C108.524 544.05 108.224 543.81 107.844 543.65C107.484 543.47 107.014 543.38 106.434 543.38C105.694 543.38 105.054 543.53 104.514 543.83C103.994 544.13 103.564 544.49 103.224 544.91C102.904 545.33 102.664 545.77 102.504 546.23C102.364 546.67 102.294 547.04 102.294 547.34V557H99.7438V541.49ZM127.12 538.7H124.57V535.58H127.12V538.7ZM124.57 541.49H127.12V557H124.57V541.49ZM128.91 555.05L138.27 543.74H129.51V541.49H141.57V543.23L132.09 554.75H141.99V557H128.91V555.05ZM154.454 547.76C154.414 547.16 154.274 546.59 154.034 546.05C153.814 545.51 153.504 545.05 153.104 544.67C152.724 544.27 152.264 543.96 151.724 543.74C151.204 543.5 150.624 543.38 149.984 543.38C149.324 543.38 148.724 543.5 148.184 543.74C147.664 543.96 147.214 544.27 146.834 544.67C146.454 545.07 146.154 545.54 145.934 546.08C145.714 546.6 145.584 547.16 145.544 547.76H154.454ZM156.914 552.08C156.574 553.82 155.824 555.13 154.664 556.01C153.504 556.89 152.044 557.33 150.284 557.33C149.044 557.33 147.964 557.13 147.044 556.73C146.144 556.33 145.384 555.77 144.764 555.05C144.144 554.33 143.674 553.47 143.354 552.47C143.054 551.47 142.884 550.38 142.844 549.2C142.844 548.02 143.024 546.94 143.384 545.96C143.744 544.98 144.244 544.13 144.884 543.41C145.544 542.69 146.314 542.13 147.194 541.73C148.094 541.33 149.074 541.13 150.134 541.13C151.514 541.13 152.654 541.42 153.554 542C154.474 542.56 155.204 543.28 155.744 544.16C156.304 545.04 156.684 546 156.884 547.04C157.104 548.08 157.194 549.07 157.154 550.01H145.544C145.524 550.69 145.604 551.34 145.784 551.96C145.964 552.56 146.254 553.1 146.654 553.58C147.054 554.04 147.564 554.41 148.184 554.69C148.804 554.97 149.534 555.11 150.374 555.11C151.454 555.11 152.334 554.86 153.014 554.36C153.714 553.86 154.174 553.1 154.394 552.08H156.914ZM159.468 553.67H162.798V557H159.468V553.67Z" fill="white"/>
<path d="M371 311.443H37V311.61H371V311.443Z" fill="#EBEBEB"/>
<path d="M337.533 322.191H315.409V322.358H337.533V322.191Z" fill="#EBEBEB"/>
<path d="M306.999 322.191H259.698V322.358H306.999V322.191Z" fill="#EBEBEB"/>
<path d="M233.613 315.992H220.794V316.159H233.613V315.992Z" fill="#EBEBEB"/>
<path d="M94.9487 317.115H72.043V317.282H94.9487V317.115Z" fill="#EBEBEB"/>
<path d="M142.544 317.115H100.895V317.282H142.544V317.115Z" fill="#EBEBEB"/>
<path d="M187.394 319.933H162.805V320.1H187.394V319.933Z" fill="#EBEBEB"/>
<path d="M195.316 281.65H66.332C65.3216 281.649 64.3531 281.246 63.6392 280.531C62.9254 279.816 62.5244 278.847 62.5244 277.836V96.5209C62.5332 95.5162 62.938 94.5556 63.651 93.8477C64.3639 93.1398 65.3273 92.7417 66.332 92.74H195.316C196.328 92.74 197.298 93.1419 198.013 93.8572C198.729 94.5725 199.13 95.5427 199.13 96.5543V277.836C199.13 278.848 198.729 279.818 198.013 280.533C197.298 281.249 196.328 281.65 195.316 281.65ZM66.332 92.8736C65.3659 92.8754 64.4399 93.2604 63.7573 93.9442C63.0748 94.628 62.6914 95.5547 62.6914 96.5209V277.836C62.6914 278.802 63.0748 279.729 63.7573 280.413C64.4399 281.097 65.3659 281.482 66.332 281.483H195.316C196.283 281.482 197.21 281.097 197.893 280.413C198.577 279.73 198.962 278.803 198.963 277.836V96.5209C198.962 95.5541 198.577 94.6274 197.893 93.9438C197.21 93.2602 196.283 92.8754 195.316 92.8736H66.332Z" fill="#EBEBEB"/>
<path d="M339.811 281.65H210.82C209.809 281.649 208.84 281.246 208.125 280.531C207.41 279.816 207.008 278.847 207.006 277.836V96.5209C207.016 95.5156 207.423 94.555 208.137 93.8473C208.851 93.1395 209.815 92.7417 210.82 92.74H339.811C340.814 92.7435 341.776 93.1423 342.488 93.85C343.199 94.5578 343.603 95.5174 343.612 96.5209V277.836C343.612 278.845 343.212 279.814 342.499 280.528C341.787 281.243 340.82 281.647 339.811 281.65ZM210.82 92.8736C209.853 92.8754 208.927 93.2602 208.243 93.9438C207.559 94.6274 207.175 95.5541 207.173 96.5209V277.836C207.175 278.803 207.559 279.73 208.243 280.413C208.927 281.097 209.853 281.482 210.82 281.483H339.811C340.778 281.482 341.704 281.097 342.388 280.413C343.072 279.73 343.456 278.803 343.458 277.836V96.5209C343.456 95.5541 343.072 94.6274 342.388 93.9438C341.704 93.2602 340.778 92.8754 339.811 92.8736H210.82Z" fill="#EBEBEB"/>
<path d="M87.661 185.071H178.309V106.534L87.661 106.534L87.661 185.071Z" fill="#E6E6E6"/>
<path d="M85.6376 185.071H176.285V106.534L85.6376 106.534L85.6376 185.071Z" fill="#F5F5F5"/>
<path d="M172.671 182.265V109.34H89.2577V182.265H172.671Z" fill="#FAFAFA"/>
<path d="M139.217 182.265L154.334 109.34H122.711L107.601 182.265H139.217Z" fill="white"/>
<path d="M90.7803 182.272V109.346H89.2572V182.272H90.7803Z" fill="#E6E6E6"/>
<path d="M87.1331 169.193H174.788V165.425H87.1331V169.193Z" fill="#F5F5F5"/>
<path d="M174.101 307.469H188.576V244.697H174.101V307.469Z" fill="#F0F0F0"/>
<path d="M79.5717 311.443H185.804V307.469H79.5717V311.443Z" fill="#F0F0F0"/>
<path d="M174.1 244.69H76.7861V307.462H174.1V244.69Z" fill="#F5F5F5"/>
<path d="M168.416 252.419H82.4775V273.006H168.416V252.419Z" fill="#F0F0F0"/>
<path d="M168.416 279.152H82.4775V299.74H168.416V279.152Z" fill="#F0F0F0"/>
<path d="M102.284 264.122H148.609C148.983 264.12 149.34 263.971 149.604 263.707C149.868 263.443 150.017 263.086 150.019 262.713C150.017 262.339 149.868 261.98 149.604 261.715C149.341 261.45 148.983 261.3 148.609 261.296H102.284C101.91 261.3 101.552 261.45 101.288 261.715C101.025 261.98 100.876 262.339 100.874 262.713C100.876 263.086 101.025 263.443 101.289 263.707C101.553 263.971 101.91 264.12 102.284 264.122Z" fill="#F5F5F5"/>
<path d="M102.284 290.855H148.609C148.983 290.854 149.34 290.705 149.604 290.441C149.868 290.177 150.017 289.819 150.019 289.446C150.019 289.072 149.87 288.712 149.606 288.447C149.342 288.182 148.984 288.032 148.609 288.03H102.284C101.909 288.032 101.551 288.182 101.286 288.447C101.022 288.712 100.874 289.072 100.874 289.446C100.876 289.819 101.025 290.177 101.289 290.441C101.553 290.705 101.91 290.854 102.284 290.855Z" fill="#F5F5F5"/>
<path d="M325.322 147.583C333.565 145.312 336.384 130.355 315.556 124.25C320.152 139.293 310.953 151.524 325.322 147.583Z" fill="#EBEBEB"/>
<path d="M327.145 154.076C333.645 147.055 327.499 131.17 304.093 137.663C317.333 149.246 315.823 166.32 327.145 154.076Z" fill="#E0E0E0"/>
<path d="M320.733 155.879C315.296 150.495 323.085 131.758 341.041 140.442C330.867 150.188 330.252 165.265 320.733 155.879Z" fill="#FAFAFA"/>
<path d="M315.309 166.367H331.134L332.33 155.659H314.12L315.309 166.367Z" fill="#E6E6E6"/>
<path d="M313.939 157.576H332.51C332.823 157.576 333.124 157.451 333.346 157.23C333.567 157.008 333.692 156.707 333.692 156.394C333.692 156.08 333.567 155.779 333.346 155.558C333.124 155.336 332.823 155.211 332.51 155.211H313.939C313.626 155.211 313.325 155.336 313.103 155.558C312.881 155.779 312.757 156.08 312.757 156.394C312.757 156.707 312.881 157.008 313.103 157.23C313.325 157.451 313.626 157.576 313.939 157.576Z" fill="#E6E6E6"/>
<path d="M182.163 293.307V275.171H197.266V257.041H212.377V238.905H227.48V220.769H242.59V202.639H257.694V184.503H272.804V166.367H287.914H371V311.443H182.163H167.053V293.307H182.163Z" fill="#FAFAFA"/>
<path d="M265.249 293.307V275.171H280.359V257.041H295.463V238.905H310.573V220.769H325.676V202.639H340.786V184.503H355.89V166.367H371V184.503V311.443H265.249H250.146V293.307H265.249Z" fill="#E0E0E0"/>
<path d="M250.145 293.307H166.164V298.745H250.145V293.307Z" fill="#EBEBEB"/>
<path d="M265.255 275.171H181.274V280.608H265.255V275.171Z" fill="#EBEBEB"/>
<path d="M280.359 257.041H196.378V262.479H280.359V257.041Z" fill="#EBEBEB"/>
<path d="M295.469 238.905H211.488V244.343H295.469V238.905Z" fill="#EBEBEB"/>
<path d="M310.573 220.769H226.592V226.206H310.573V220.769Z" fill="#EBEBEB"/>
<path d="M325.683 202.639H241.702V208.077H325.683V202.639Z" fill="#EBEBEB"/>
<path d="M340.787 184.503H256.806V189.941H340.787V184.503Z" fill="#EBEBEB"/>
<path d="M355.897 166.367H271.916V171.804H355.897V166.367Z" fill="#EBEBEB"/>
<path d="M204 341.61C275.531 341.61 333.518 338.225 333.518 334.048C333.518 329.872 275.531 326.487 204 326.487C132.469 326.487 74.4814 329.872 74.4814 334.048C74.4814 338.225 132.469 341.61 204 341.61Z" fill="#F5F5F5"/>
<path d="M260.58 161.965C260.46 163.969 260.226 165.806 259.965 167.71C259.705 169.614 259.351 171.477 258.95 173.348C258.169 177.133 257.039 180.839 255.577 184.416L254.969 185.752L254.822 186.086L254.768 186.26L254.662 186.474C254.457 186.893 254.199 187.284 253.893 187.636C253.529 188.046 253.095 188.387 252.611 188.645C252.136 188.894 251.62 189.057 251.088 189.126C250.271 189.213 249.444 189.127 248.663 188.872C247.556 188.494 246.511 187.954 245.563 187.269C244.734 186.684 243.942 186.048 243.192 185.365C240.38 182.758 237.85 179.863 235.644 176.728L237.855 174.851C239.191 176.086 240.527 177.336 241.863 178.518C243.191 179.7 244.578 180.815 246.018 181.858C246.695 182.343 247.4 182.789 248.128 183.194C248.716 183.55 249.35 183.822 250.012 184.002C250.239 184.049 250.4 184.002 250.326 184.002C250.169 184.02 250.021 184.088 249.905 184.196C249.865 184.196 249.865 184.196 249.905 184.196L250.119 183.642L250.587 182.426C251.745 179.079 252.65 175.649 253.292 172.165C253.646 170.415 253.893 168.632 254.161 166.861C254.428 165.091 254.615 163.268 254.768 161.578L260.58 161.965Z" fill="#FFC3BD"/>
<path d="M256.532 154.61C254.04 155.245 252.297 165.492 252.297 165.492L259.157 170.168C259.157 170.168 265.737 159.834 263.833 157.095C261.829 154.229 260.166 153.688 256.532 154.61Z" fill="#D0DEFB"/>
<path d="M256.532 154.61C254.04 155.245 252.297 165.492 252.297 165.492L259.157 170.168C259.157 170.168 265.737 159.834 263.833 157.095C261.829 154.229 260.166 153.688 256.532 154.61Z" fill="#D0DEFB"/>
<path opacity="0.4" d="M256.532 154.61C254.04 155.245 252.297 165.492 252.297 165.492L259.157 170.168C259.157 170.168 265.737 159.834 263.833 157.095C261.829 154.229 260.166 153.688 256.532 154.61Z" fill="black"/>
<path opacity="0.3" d="M256.752 156.901L254.842 167.222L258.696 169.841L256.752 156.901Z" fill="black"/>
<path d="M237.968 174.43L234.728 169.273L232.878 175.131C232.878 175.131 235.55 177.937 237.975 177.269L237.968 174.43Z" fill="#FFC3BD"/>
<path d="M229.918 167.569L228.636 172.553L232.851 175.131L234.701 169.273L229.918 167.569Z" fill="#FFC3BD"/>
<path d="M269.999 327.041H263.96L263.553 313.053H269.598L269.999 327.041Z" fill="#FFC3BD"/>
<path d="M323.298 298.985L318.696 302.9L308.161 293.494L312.764 289.586L323.298 298.985Z" fill="#FFC3BD"/>
<path d="M317.433 302.432L321.902 297.315C321.978 297.227 322.084 297.17 322.2 297.154C322.315 297.138 322.432 297.164 322.53 297.228L327.079 300.174C327.191 300.252 327.286 300.353 327.356 300.47C327.427 300.587 327.471 300.718 327.488 300.853C327.504 300.989 327.492 301.126 327.451 301.257C327.411 301.387 327.343 301.508 327.253 301.61C325.663 303.367 324.808 304.135 322.844 306.38C321.641 307.763 320.018 309.914 318.348 311.817C316.678 313.721 314.701 312.185 315.229 311.236C317.573 307.001 317.012 305.518 317.052 303.434C317.058 303.066 317.193 302.711 317.433 302.432Z" fill="#263238"/>
<path d="M263.753 326.346H270.54C270.657 326.345 270.77 326.387 270.859 326.463C270.947 326.539 271.005 326.645 271.021 326.76L271.796 332.104C271.818 332.246 271.808 332.39 271.767 332.527C271.727 332.664 271.656 332.79 271.561 332.897C271.466 333.004 271.349 333.088 271.217 333.144C271.086 333.2 270.943 333.226 270.801 333.22C268.436 333.18 267.294 333.04 264.308 333.04C262.471 333.04 258.676 333.233 256.138 333.233C253.6 333.233 253.466 330.722 254.528 330.501C259.258 329.479 261.121 328.076 262.718 326.734C263.005 326.484 263.373 326.346 263.753 326.346Z" fill="#263238"/>
<path opacity="0.2" d="M263.559 313.06L263.766 320.268H269.804L269.597 313.06H263.559Z" fill="black"/>
<path opacity="0.2" d="M312.77 289.586L308.161 293.494L313.599 298.344L318.201 294.429L312.77 289.586Z" fill="black"/>
<path d="M256.531 154.61C256.531 154.61 253.652 155.626 259.417 191.07H283.946C283.539 181.083 283.525 174.924 288.295 154.437C284.861 153.729 281.381 153.269 277.881 153.061C274.171 152.796 270.448 152.796 266.738 153.061C261.956 153.528 256.531 154.61 256.531 154.61Z" fill="#D0DEFB"/>
<path opacity="0.4" d="M256.531 154.61C256.531 154.61 253.652 155.626 259.417 191.07H283.946C283.539 181.083 283.525 174.924 288.295 154.437C284.861 153.729 281.381 153.269 277.881 153.061C274.171 152.796 270.448 152.796 266.738 153.061C261.956 153.528 256.531 154.61 256.531 154.61Z" fill="black"/>
<path d="M277.881 153.061C274.172 152.796 270.448 152.796 266.739 153.061C266.138 153.114 265.523 153.181 264.915 153.254C264.664 153.634 264.503 154.066 264.445 154.518C264.387 154.97 264.434 155.429 264.581 155.859C265.363 157.803 268.182 158.03 270.239 158.03C277.834 158.03 279.117 153.595 279.17 153.408L279.244 153.141C278.816 153.114 278.335 153.081 277.881 153.061Z" fill="white"/>
<path d="M276.813 140.522C276.104 144.103 275.41 150.669 277.915 153.061C277.915 153.061 276.933 156.701 270.273 156.701C262.925 156.701 266.772 153.067 266.772 153.067C270.78 152.112 270.667 149.146 269.972 146.387L276.813 140.522Z" fill="#FFC3BD"/>
<path opacity="0.2" d="M273.987 142.9L269.938 146.354C270.113 147.01 270.229 147.681 270.286 148.358C271.809 148.137 273.906 146.461 274.073 144.864C274.167 144.21 274.138 143.544 273.987 142.9Z" fill="black"/>
<path d="M272.611 121.03C271.989 118.926 271.468 115.613 275.209 114.116C273.746 112.326 273.392 108.959 275.209 106.962C277.026 104.965 279.752 105.699 279.752 105.699C279.752 105.699 280.553 100.816 286.492 101.691C292.43 102.566 289.785 106.474 289.785 106.474C289.785 106.474 297.888 104.871 298.429 112.486C298.97 120.101 294.321 119.166 294.321 119.166C294.321 119.166 297.935 122.199 295.931 125.532C293.927 128.866 289.297 127.717 289.297 127.717C289.297 127.717 287.12 133.608 281.989 130.255C276.859 126.902 272.611 121.03 272.611 121.03Z" fill="#263238"/>
<path d="M260.58 125.472C258.576 128.064 259.458 130.997 261.248 132.152C265.556 134.904 271.789 123.361 270.166 121.979C268.542 120.596 262.584 122.874 260.58 125.472Z" fill="#263238"/>
<path d="M278.676 119.3C275.844 118.157 272.971 119.353 272.076 121.077C269.892 125.278 279.812 132.847 282.684 127.596C284.387 124.477 281.595 120.475 278.676 119.3Z" fill="#D0DEFB"/>
<path d="M277.48 132.152C277.687 138.164 277.901 140.676 275.182 144.023C271.101 149.053 263.693 147.997 261.702 142.186C259.912 136.955 259.879 128.037 265.483 125.111C266.715 124.46 268.093 124.134 269.487 124.165C270.88 124.195 272.243 124.582 273.445 125.287C274.647 125.993 275.648 126.994 276.355 128.195C277.061 129.397 277.449 130.759 277.48 132.152Z" fill="#FFC3BD"/>
<path d="M276.578 135.298C273.906 134.303 273.238 131.184 273.666 129.954C272.33 129.901 269.41 129.42 268.322 127.763C266.237 129.099 261.835 130.435 261.361 128.211C260.887 125.986 267.527 120.268 272.55 119.828C278.522 119.306 284.414 125.172 282.897 130.789C281.381 136.407 276.578 135.298 276.578 135.298Z" fill="#263238"/>
<path d="M259.444 191.07C259.444 191.07 254.681 237.596 255.075 256.019C255.489 275.178 262.51 318.871 262.51 318.871H270.673C270.673 318.871 269.383 276.293 270.105 257.482C270.893 236.968 277.406 191.07 277.406 191.07H259.444Z" fill="#263238"/>
<path d="M271.355 319.165H261.775L261.067 316.113L271.802 315.739L271.355 319.165Z" fill="#D0DEFB"/>
<path opacity="0.2" d="M269.999 202.646C263.987 214.764 268.789 236.874 270.92 245.104C272.009 232.746 273.853 217.643 275.289 206.554C274.381 200.288 272.804 197.055 269.999 202.646Z" fill="black"/>
<path d="M265.897 191.07C265.897 191.07 271.455 239.44 275.65 254.971C280.634 273.407 311.582 298.224 311.582 298.224L317.861 292.88C317.861 292.88 295.43 265.919 291.615 256.206C283.486 235.498 290.446 204.583 283.947 191.056L265.897 191.07Z" fill="#263238"/>
<path d="M318.863 292.606L311.074 299.219L308.161 297.475L316.972 289.279L318.863 292.606Z" fill="#D0DEFB"/>
<path d="M268.589 134.664C268.636 135.151 268.416 135.565 268.102 135.599C267.788 135.632 267.487 135.258 267.434 134.777C267.38 134.296 267.607 133.869 267.928 133.842C268.249 133.815 268.542 134.156 268.589 134.664Z" fill="#263238"/>
<path d="M263.111 135.191C263.158 135.672 262.938 136.093 262.617 136.127C262.296 136.16 262.009 135.786 261.949 135.298C261.889 134.811 262.123 134.397 262.437 134.37C262.751 134.343 263.064 134.704 263.111 135.191Z" fill="#263238"/>
<path d="M262.59 134.383L261.395 134.156C261.395 134.156 262.116 135.011 262.59 134.383Z" fill="#263238"/>
<path d="M264.635 135.886C264.309 137.033 263.828 138.13 263.205 139.146C263.47 139.298 263.765 139.392 264.069 139.419C264.374 139.447 264.68 139.409 264.969 139.306L264.635 135.886Z" fill="#ED847E"/>
<path d="M267.661 140.903C267.396 140.975 267.126 141.024 266.853 141.05C266.834 141.052 266.816 141.05 266.798 141.044C266.78 141.039 266.764 141.03 266.749 141.018C266.735 141.007 266.723 140.992 266.715 140.976C266.706 140.959 266.701 140.941 266.699 140.923C266.695 140.885 266.706 140.847 266.73 140.817C266.754 140.787 266.788 140.768 266.826 140.763C267.431 140.718 268.016 140.532 268.536 140.22C269.056 139.908 269.495 139.478 269.819 138.966C269.826 138.948 269.838 138.932 269.852 138.919C269.866 138.906 269.883 138.897 269.902 138.891C269.92 138.885 269.939 138.884 269.959 138.886C269.978 138.889 269.996 138.895 270.012 138.905C270.045 138.924 270.07 138.954 270.081 138.99C270.092 139.026 270.089 139.065 270.072 139.099C269.534 139.991 268.669 140.638 267.661 140.903Z" fill="#263238"/>
<path d="M278.883 136.3C278.736 137.45 278.141 138.495 277.226 139.206C276.004 140.141 274.828 139.206 274.688 137.743C274.567 136.407 275.048 134.403 276.505 134.016C276.822 133.951 277.151 133.965 277.463 134.055C277.774 134.145 278.059 134.31 278.293 134.534C278.527 134.759 278.703 135.037 278.805 135.345C278.908 135.652 278.935 135.98 278.883 136.3Z" fill="#FFC3BD"/>
<path d="M269.177 131.23C269.14 131.24 269.101 131.242 269.064 131.236C269.026 131.23 268.989 131.217 268.957 131.197C268.654 131.004 268.31 130.885 267.952 130.85C267.595 130.815 267.234 130.865 266.899 130.996C266.83 131.027 266.751 131.031 266.679 131.006C266.607 130.981 266.548 130.93 266.512 130.863C266.48 130.795 266.476 130.716 266.501 130.645C266.526 130.574 266.578 130.515 266.646 130.482C267.066 130.308 267.522 130.238 267.976 130.278C268.429 130.317 268.866 130.465 269.251 130.709C269.282 130.728 269.31 130.754 269.332 130.784C269.354 130.813 269.37 130.847 269.378 130.883C269.387 130.919 269.388 130.957 269.383 130.993C269.377 131.03 269.364 131.065 269.344 131.097C269.307 131.161 269.248 131.208 269.177 131.23Z" fill="#263238"/>
<path d="M260.426 132.894C260.357 132.92 260.281 132.92 260.212 132.894C260.147 132.856 260.099 132.795 260.078 132.722C260.057 132.65 260.064 132.573 260.099 132.506C260.302 132.1 260.601 131.748 260.97 131.482C261.339 131.216 261.766 131.042 262.216 130.976C262.253 130.973 262.291 130.977 262.327 130.988C262.363 130.999 262.396 131.017 262.425 131.042C262.454 131.066 262.477 131.096 262.494 131.129C262.511 131.163 262.521 131.199 262.523 131.237C262.529 131.312 262.505 131.386 262.456 131.444C262.407 131.501 262.338 131.537 262.263 131.544C261.908 131.604 261.573 131.746 261.284 131.96C260.995 132.173 260.761 132.452 260.6 132.773C260.581 132.804 260.555 132.831 260.525 132.852C260.496 132.873 260.462 132.887 260.426 132.894Z" fill="#263238"/>
<path d="M290.8 160.95C292.162 164.282 293.337 167.687 294.32 171.15C295.362 174.643 296.104 178.219 296.538 181.838C296.652 182.76 296.685 183.728 296.725 184.684V185.225C296.725 185.418 296.692 185.619 296.665 185.793C296.609 186.126 296.534 186.457 296.438 186.781C296.264 187.337 296.04 187.875 295.77 188.391C294.844 190.104 293.708 191.695 292.39 193.127C289.952 195.806 287.268 198.25 284.374 200.428L282.443 198.284C284.668 195.686 286.912 193.02 288.816 190.268C289.736 189.019 290.52 187.676 291.154 186.26C291.263 185.986 291.352 185.705 291.421 185.418C291.439 185.321 291.451 185.223 291.455 185.125C291.458 185.096 291.458 185.067 291.455 185.038V184.944C291.368 184.156 291.308 183.368 291.161 182.559C290.586 179.259 289.785 176.003 288.763 172.813C287.741 169.58 286.598 166.3 285.423 163.174L290.8 160.95Z" fill="#FFC3BD"/>
<path d="M288.295 154.437C290.753 155.185 293.705 163.648 293.705 163.648L284.16 170.462C284.16 170.462 280.679 163.401 281.715 160.221C282.824 156.915 285.496 153.582 288.295 154.437Z" fill="#D0DEFB"/>
<path opacity="0.4" d="M288.295 154.437C290.753 155.185 293.705 163.648 293.705 163.648L284.16 170.462C284.16 170.462 280.679 163.401 281.715 160.221C282.824 156.915 285.496 153.582 288.295 154.437Z" fill="black"/>
<path d="M315.783 305.345C315.659 305.341 315.538 305.31 315.428 305.253C315.318 305.197 315.223 305.116 315.148 305.017C315.088 304.955 315.045 304.877 315.024 304.793C315.002 304.708 315.004 304.62 315.028 304.536C315.255 303.801 317.353 303.2 317.593 303.133C317.619 303.124 317.648 303.124 317.675 303.132C317.701 303.14 317.724 303.157 317.74 303.18C317.755 303.203 317.763 303.23 317.763 303.257C317.763 303.284 317.755 303.311 317.74 303.334C317.366 304.049 316.625 305.251 315.863 305.338L315.783 305.345ZM317.333 303.508C316.504 303.775 315.422 304.236 315.329 304.623C315.319 304.66 315.319 304.699 315.33 304.735C315.34 304.772 315.361 304.805 315.389 304.83C315.442 304.907 315.515 304.968 315.599 305.008C315.683 305.048 315.777 305.065 315.87 305.057C316.257 305.011 316.798 304.436 317.333 303.508Z" fill="#D0DEFB"/>
<path d="M316.672 303.534C316.047 303.598 315.421 303.421 314.921 303.04C314.851 302.951 314.813 302.842 314.813 302.729C314.813 302.616 314.851 302.507 314.921 302.419C314.981 302.326 315.06 302.248 315.154 302.19C315.248 302.132 315.353 302.096 315.462 302.085C316.331 301.978 317.647 303.113 317.7 303.16C317.72 303.176 317.735 303.197 317.743 303.22C317.751 303.244 317.753 303.269 317.747 303.294C317.744 303.32 317.734 303.344 317.717 303.364C317.701 303.385 317.679 303.4 317.654 303.407C317.334 303.498 317.003 303.541 316.672 303.534ZM315.609 302.365H315.516C315.447 302.373 315.382 302.395 315.323 302.431C315.264 302.467 315.214 302.515 315.175 302.572C315.075 302.726 315.108 302.806 315.175 302.859C315.436 303.2 316.625 303.327 317.346 303.193C316.852 302.766 316.252 302.48 315.609 302.365Z" fill="#D0DEFB"/>
<path d="M261.481 327.402C260.965 327.449 260.449 327.317 260.018 327.028C259.927 326.944 259.855 326.84 259.81 326.724C259.765 326.608 259.747 326.484 259.758 326.36C259.763 326.281 259.789 326.204 259.832 326.137C259.875 326.071 259.935 326.016 260.005 325.979C260.747 325.572 263.151 326.801 263.425 326.948C263.451 326.962 263.471 326.984 263.485 327.01C263.498 327.036 263.503 327.066 263.499 327.095C263.495 327.124 263.482 327.152 263.462 327.173C263.441 327.195 263.414 327.209 263.385 327.215C262.758 327.335 262.12 327.398 261.481 327.402ZM260.406 326.153C260.314 326.147 260.222 326.165 260.139 326.206C260.11 326.22 260.086 326.242 260.07 326.269C260.053 326.296 260.045 326.328 260.045 326.36C260.034 326.443 260.044 326.528 260.073 326.607C260.102 326.687 260.15 326.757 260.212 326.814C260.58 327.148 261.548 327.201 262.884 326.981C262.111 326.565 261.273 326.285 260.406 326.153Z" fill="#D0DEFB"/>
<path d="M263.359 327.208H263.299C262.577 326.881 261.155 325.578 261.295 324.897C261.295 324.737 261.435 324.529 261.829 324.489C261.972 324.474 262.115 324.489 262.252 324.531C262.389 324.574 262.515 324.644 262.624 324.736C263.379 325.371 263.519 326.994 263.526 327.068C263.528 327.092 263.523 327.117 263.513 327.139C263.502 327.162 263.486 327.181 263.466 327.195C263.45 327.205 263.432 327.211 263.414 327.213C263.395 327.216 263.377 327.214 263.359 327.208ZM261.916 324.757H261.836C261.569 324.757 261.555 324.89 261.549 324.924C261.482 325.331 262.45 326.36 263.185 326.801C263.125 326.114 262.855 325.463 262.41 324.937C262.275 324.813 262.1 324.742 261.916 324.736V324.757Z" fill="#D0DEFB"/>
<path d="M284.314 189.6L284.942 191.798C285.029 191.965 284.828 192.139 284.541 192.139H259.298C259.077 192.139 258.89 192.032 258.877 191.891L258.656 189.7C258.656 189.547 258.83 189.42 259.077 189.42H283.92C283.996 189.413 284.072 189.427 284.141 189.458C284.21 189.49 284.27 189.539 284.314 189.6Z" fill="#D0DEFB"/>
<path opacity="0.3" d="M284.314 189.6L284.942 191.798C285.029 191.965 284.828 192.139 284.541 192.139H259.298C259.077 192.139 258.89 192.032 258.877 191.891L258.656 189.7C258.656 189.547 258.83 189.42 259.077 189.42H283.92C283.996 189.413 284.072 189.427 284.141 189.458C284.21 189.49 284.27 189.539 284.314 189.6Z" fill="white"/>
<path d="M280.98 192.406H281.648C281.775 192.406 281.875 192.339 281.869 192.252L281.555 189.4C281.555 189.32 281.434 189.246 281.301 189.246H280.633C280.499 189.246 280.399 189.32 280.412 189.4L280.72 192.252C280.733 192.339 280.82 192.406 280.98 192.406Z" fill="#263238"/>
<path d="M261.168 192.406H261.836C261.969 192.406 262.07 192.339 262.063 192.252L261.749 189.4C261.749 189.32 261.622 189.246 261.495 189.246H260.827C260.693 189.246 260.593 189.32 260.6 189.4L260.914 192.252C260.921 192.339 261.034 192.406 261.168 192.406Z" fill="#263238"/>
<path d="M271.074 192.406H271.742C271.876 192.406 271.976 192.339 271.969 192.252L271.655 189.4C271.655 189.32 271.535 189.246 271.401 189.246H270.733C270.6 189.246 270.5 189.32 270.513 189.4L270.8 192.272C270.8 192.339 270.94 192.406 271.074 192.406Z" fill="#263238"/>
<path d="M268.075 133.856L266.879 133.628C266.879 133.628 267.56 134.483 268.075 133.856Z" fill="#263238"/>
<path opacity="0.2" d="M245.964 218.919C234.646 223.315 222.279 224.258 210.427 221.626C198.574 218.994 187.768 212.907 179.374 204.134C170.981 195.361 165.378 184.296 163.273 172.338C161.168 160.381 162.657 148.067 167.55 136.956C172.443 125.844 180.521 116.433 190.763 109.912C201.005 103.391 212.95 100.054 225.088 100.322C237.227 100.59 249.013 104.451 258.957 111.418C268.901 118.384 276.556 128.143 280.954 139.46C283.875 146.975 285.287 154.991 285.109 163.052C284.932 171.112 283.168 179.059 279.919 186.438C276.669 193.816 271.998 200.483 266.172 206.056C260.346 211.629 253.479 216 245.964 218.919Z" fill="#D0DEFB"/>
<path opacity="0.1" d="M234.856 101.324L186.706 210.675C185.965 210.114 185.23 209.533 184.508 208.945C179.855 205.096 175.802 200.572 172.484 195.525L214.074 101.07C220.964 99.9603 227.994 100.046 234.856 101.324Z" fill="white"/>
<path opacity="0.1" d="M269.084 120.295L223.813 223.107C214.41 223.117 205.13 220.964 196.692 216.814L246.124 104.544C254.882 107.969 262.736 113.357 269.084 120.295Z" fill="white"/>
<path d="M173.192 120.342C181.372 110.347 192.332 103.002 204.687 99.2354C217.041 95.4692 230.235 95.4512 242.6 99.1835C254.965 102.916 265.945 110.231 274.153 120.204C282.36 130.177 287.426 142.359 288.709 155.211C289.993 168.063 287.437 181.007 281.364 192.406C275.291 203.805 265.974 213.147 254.592 219.251C243.21 225.356 230.273 227.947 217.417 226.699C204.562 225.451 192.366 220.419 182.37 212.239C168.968 201.269 160.472 185.424 158.751 168.191C157.03 150.957 162.224 133.746 173.192 120.342ZM270.132 199.674C277.641 190.495 282.259 179.296 283.403 167.493C284.548 155.69 282.166 143.812 276.56 133.363C270.954 122.913 262.376 114.36 251.909 108.786C241.442 103.211 229.558 100.866 217.758 102.046C205.959 103.225 194.774 107.877 185.618 115.414C176.462 122.95 169.747 133.032 166.321 144.385C162.895 155.738 162.912 167.852 166.37 179.195C169.829 190.538 176.573 200.6 185.75 208.11C191.845 213.098 198.862 216.835 206.401 219.111C213.94 221.386 221.853 222.153 229.689 221.37C237.525 220.586 245.129 218.267 252.069 214.545C259.008 210.822 265.146 205.769 270.132 199.674Z" fill="#D0DEFB"/>
<path d="M275.897 199.446C282.33 203.287 288.449 207.509 294.461 211.865C300.473 216.22 306.331 220.756 312.096 225.412C317.861 230.068 323.519 234.857 328.976 239.887C331.711 242.399 334.383 244.977 336.992 247.623C339.611 250.295 342.183 252.967 344.607 255.866C345.168 256.537 345.476 257.382 345.481 258.257C345.485 259.131 345.185 259.979 344.631 260.656C344.078 261.333 343.306 261.796 342.448 261.965C341.59 262.134 340.7 262 339.931 261.584C336.591 259.78 333.465 257.79 330.346 255.752C327.226 253.715 324.18 251.591 321.174 249.406C315.162 245.051 309.344 240.462 303.646 235.725C297.948 230.989 292.336 226.146 286.879 221.11C281.421 216.073 276.071 210.916 271.034 205.372C270.405 204.686 270.044 203.796 270.018 202.866C269.992 201.936 270.302 201.028 270.891 200.308C271.481 199.588 272.31 199.104 273.227 198.946C274.144 198.788 275.087 198.965 275.884 199.446H275.897Z" fill="#D0DEFB"/>
<path d="M283.085 197.616L276.632 198.598L281.248 202.646C281.248 202.646 284.895 201.31 285.256 198.839L283.085 197.616Z" fill="#FFC3BD"/>
<path d="M273.145 202.305L277.199 205.485L282.149 202.252L276.631 198.611L273.145 202.305Z" fill="#FFC3BD"/>
<path d="M242.637 209.339C243.227 207.73 244.289 206.338 245.686 205.344C247.082 204.351 248.746 203.804 250.46 203.775H303.933C304.857 203.74 305.777 203.909 306.629 204.269C307.481 204.629 308.243 205.171 308.862 205.858C309.481 206.545 309.942 207.359 310.213 208.243C310.483 209.128 310.556 210.06 310.426 210.976L296.612 326.881C296.319 328.854 295.333 330.658 293.831 331.971C292.33 333.285 290.41 334.021 288.415 334.048H118.743C117.822 334.083 116.905 333.916 116.056 333.559C115.206 333.201 114.446 332.661 113.828 331.978C113.209 331.295 112.748 330.484 112.477 329.604C112.205 328.723 112.13 327.793 112.257 326.881L123.84 229.5C124.133 227.526 125.119 225.722 126.62 224.409C128.122 223.096 130.042 222.359 132.037 222.332H224.367C228.368 222.264 232.255 220.986 235.516 218.667C238.777 216.348 241.26 213.096 242.637 209.339Z" fill="#D0DEFB"/>
<path d="M115.31 328.711H292.603L302.704 209.42H125.416L115.31 328.711Z" fill="#F0F0F0"/>
<path d="M115.31 328.711H292.603L299.911 209.42H125.416L115.31 328.711Z" fill="#E0E0E0"/>
<path d="M115.31 328.711H292.603L298.696 205.632H121.408L115.31 328.711Z" fill="#F0F0F0"/>
<path d="M115.31 328.711H292.603L295.015 205.632H121.408L115.31 328.711Z" fill="#E0E0E0"/>
<path d="M115.31 328.711H292.603L293.659 202.292H116.372L115.31 328.711Z" fill="#F0F0F0"/>
<path d="M115.31 328.711H292.604L288.963 204.683H112.818L115.31 328.711Z" fill="#E0E0E0"/>
<path d="M115.31 328.711H292.604L287.34 205.632H110.053L115.31 328.711Z" fill="#F0F0F0"/>
<path d="M115.31 328.711H292.604L284.221 207.489H106.934L115.31 328.711Z" fill="#E0E0E0"/>
<path d="M115.31 328.711H292.604L282.885 208.524H105.598L115.31 328.711Z" fill="#F0F0F0"/>
<path d="M204.094 216.868C204.104 216.093 204.27 215.328 204.581 214.618C204.893 213.908 205.344 213.268 205.908 212.737C206.472 212.205 207.138 211.792 207.865 211.523C208.591 211.254 209.365 211.134 210.139 211.17H263.613C265.683 211.249 267.668 212.014 269.257 213.344C270.846 214.674 271.948 216.494 272.39 218.518L293.519 326.734C294.307 330.788 291.662 334.082 287.607 334.082H117.935C113.874 334.082 109.919 330.788 109.151 326.734L91.7229 237.522C90.9347 233.467 93.58 230.174 97.6347 230.174H189.972C197.988 230.174 203.82 224.657 204.094 216.868Z" fill="#D0DEFB"/>
<path opacity="0.2" d="M204.094 216.868C204.104 216.093 204.27 215.328 204.581 214.618C204.893 213.908 205.344 213.268 205.908 212.737C206.472 212.205 207.138 211.792 207.865 211.523C208.591 211.254 209.365 211.134 210.139 211.17H263.613C265.683 211.249 267.668 212.014 269.257 213.344C270.846 214.674 271.948 216.494 272.39 218.518L293.519 326.734C294.307 330.788 291.662 334.082 287.607 334.082H117.935C113.874 334.082 109.919 330.788 109.151 326.734L91.7229 237.522C90.9347 233.467 93.58 230.174 97.6347 230.174H189.972C197.988 230.174 203.82 224.657 204.094 216.868Z" fill="black"/>
</svg>
