<svg width="97" height="35" viewBox="0 0 97 35" fill="none" xmlns="http://www.w3.org/2000/svg">
<path d="M30.2109 3.32971H10.4854V23.0552L30.2109 3.32971Z" fill="#121215"/>
<path d="M31.5361 2.00403H11.8105V21.7295L31.5361 2.00403Z" fill="#266EFF"/>
<path d="M1.50483 11.5731L0 13.0777L0.000143974 32.6561H19.8729L21.0831 31.4458H1.50483V11.5731Z" fill="#121215"/>
<path d="M6.92182 6.55591L5.41699 8.06047L5.41714 27.6389H25.2899L26.5001 26.4286H6.92182V6.55591Z" fill="#121215"/>
<path d="M54.308 17H53.032V14.844H52.988C52.8413 15.2107 52.6213 15.548 52.328 15.856C52.0493 16.164 51.7267 16.428 51.36 16.648C50.9933 16.8533 50.5973 17.0147 50.172 17.132C49.7613 17.2493 49.3507 17.308 48.94 17.308C48.0747 17.308 47.3193 17.154 46.674 16.846C46.0433 16.5233 45.5153 16.0907 45.09 15.548C44.6647 14.9907 44.3493 14.3527 44.144 13.634C43.9387 12.9007 43.836 12.1307 43.836 11.324C43.836 10.5173 43.9387 9.75467 44.144 9.036C44.3493 8.30267 44.6647 7.66467 45.09 7.122C45.5153 6.56467 46.0433 6.12467 46.674 5.802C47.3193 5.47933 48.0747 5.318 48.94 5.318C49.3653 5.318 49.776 5.36933 50.172 5.472C50.5827 5.57467 50.964 5.736 51.316 5.956C51.668 6.16133 51.976 6.418 52.24 6.726C52.5187 7.034 52.7313 7.39333 52.878 7.804H52.922V1.292H54.308V17ZM45.222 11.324C45.222 11.9107 45.288 12.4973 45.42 13.084C45.5667 13.656 45.7867 14.1693 46.08 14.624C46.388 15.0787 46.7767 15.4527 47.246 15.746C47.7153 16.0247 48.28 16.164 48.94 16.164C49.6733 16.164 50.2893 16.0247 50.788 15.746C51.3013 15.4527 51.712 15.0787 52.02 14.624C52.3427 14.1693 52.57 13.656 52.702 13.084C52.8487 12.4973 52.922 11.9107 52.922 11.324C52.922 10.7373 52.8487 10.158 52.702 9.586C52.57 8.99933 52.3427 8.47867 52.02 8.024C51.712 7.56933 51.3013 7.20267 50.788 6.924C50.2893 6.63067 49.6733 6.484 48.94 6.484C48.28 6.484 47.7153 6.63067 47.246 6.924C46.7767 7.20267 46.388 7.56933 46.08 8.024C45.7867 8.47867 45.5667 8.99933 45.42 9.586C45.288 10.158 45.222 10.7373 45.222 11.324ZM64.4548 10.532C64.4401 10.004 64.3448 9.498 64.1688 9.014C64.0075 8.53 63.7728 8.10467 63.4648 7.738C63.1568 7.35667 62.7828 7.056 62.3428 6.836C61.9028 6.60133 61.4041 6.484 60.8468 6.484C60.2748 6.484 59.7688 6.60133 59.3288 6.836C58.8888 7.056 58.5148 7.35667 58.2068 7.738C57.8988 8.10467 57.6495 8.53733 57.4588 9.036C57.2828 9.52 57.1655 10.0187 57.1068 10.532H64.4548ZM57.1068 11.698C57.1068 12.1967 57.1728 12.7173 57.3048 13.26C57.4515 13.788 57.6788 14.2647 57.9868 14.69C58.2948 15.1153 58.6835 15.4673 59.1528 15.746C59.6221 16.0247 60.1868 16.164 60.8468 16.164C61.8588 16.164 62.6508 15.9 63.2228 15.372C63.7948 14.844 64.1908 14.14 64.4108 13.26H65.7968C65.5035 14.5507 64.9608 15.548 64.1688 16.252C63.3915 16.956 62.2841 17.308 60.8468 17.308C59.9521 17.308 59.1748 17.154 58.5148 16.846C57.8695 16.5233 57.3415 16.0907 56.9308 15.548C56.5201 14.9907 56.2121 14.3527 56.0068 13.634C55.8161 12.9007 55.7208 12.1307 55.7208 11.324C55.7208 10.576 55.8161 9.84267 56.0068 9.124C56.2121 8.40533 56.5201 7.76733 56.9308 7.21C57.3415 6.638 57.8695 6.18333 58.5148 5.846C59.1748 5.494 59.9521 5.318 60.8468 5.318C61.7561 5.318 62.5335 5.50133 63.1788 5.868C63.8241 6.23467 64.3448 6.71867 64.7408 7.32C65.1515 7.90667 65.4448 8.58867 65.6208 9.366C65.7968 10.1287 65.8701 10.906 65.8408 11.698H57.1068ZM65.765 5.648H67.305L70.869 15.614H70.913L74.433 5.648H75.863L71.617 17H70.143L65.765 5.648ZM55.672 34H53.692L51.382 24.958H51.338L49.05 34H47.026L43.374 22.626H45.442L48.016 31.932H48.06L50.348 22.626H52.394L54.77 31.932H54.814L57.366 22.626H59.302L55.672 34ZM70.4959 33.956C70.1732 34.1467 69.7259 34.242 69.1539 34.242C68.6699 34.242 68.2812 34.11 67.9879 33.846C67.7092 33.5673 67.5699 33.12 67.5699 32.504C67.0565 33.12 66.4552 33.5673 65.7659 33.846C65.0912 34.11 64.3579 34.242 63.5659 34.242C63.0525 34.242 62.5612 34.1833 62.0919 34.066C61.6372 33.9487 61.2412 33.7653 60.9039 33.516C60.5665 33.2667 60.2952 32.944 60.0899 32.548C59.8992 32.1373 59.8039 31.646 59.8039 31.074C59.8039 30.4287 59.9139 29.9007 60.1339 29.49C60.3539 29.0793 60.6399 28.7493 60.9919 28.5C61.3585 28.236 61.7692 28.038 62.2239 27.906C62.6932 27.774 63.1699 27.664 63.6539 27.576C64.1672 27.4733 64.6512 27.4 65.1059 27.356C65.5752 27.2973 65.9859 27.224 66.3379 27.136C66.6899 27.0333 66.9685 26.894 67.1739 26.718C67.3792 26.5273 67.4819 26.256 67.4819 25.904C67.4819 25.4933 67.4012 25.1633 67.2399 24.914C67.0932 24.6647 66.8952 24.474 66.6459 24.342C66.4112 24.21 66.1399 24.122 65.8319 24.078C65.5385 24.034 65.2452 24.012 64.9519 24.012C64.1599 24.012 63.4999 24.166 62.9719 24.474C62.4439 24.7673 62.1579 25.332 62.1139 26.168H60.2439C60.2732 25.464 60.4199 24.87 60.6839 24.386C60.9479 23.902 61.2999 23.5133 61.7399 23.22C62.1799 22.912 62.6785 22.692 63.2359 22.56C63.8079 22.428 64.4165 22.362 65.0619 22.362C65.5752 22.362 66.0812 22.3987 66.5799 22.472C67.0932 22.5453 67.5552 22.6993 67.9659 22.934C68.3765 23.154 68.7065 23.4693 68.9559 23.88C69.2052 24.2907 69.3299 24.826 69.3299 25.486V31.338C69.3299 31.778 69.3519 32.1007 69.3959 32.306C69.4545 32.5113 69.6305 32.614 69.9239 32.614C70.0852 32.614 70.2759 32.5773 70.4959 32.504V33.956ZM67.4599 28.126C67.2252 28.302 66.9172 28.434 66.5359 28.522C66.1545 28.5953 65.7512 28.6613 65.3259 28.72C64.9152 28.764 64.4972 28.8227 64.0719 28.896C63.6465 28.9547 63.2652 29.0573 62.9279 29.204C62.5905 29.3507 62.3119 29.5633 62.0919 29.842C61.8865 30.106 61.7839 30.4727 61.7839 30.942C61.7839 31.25 61.8425 31.514 61.9599 31.734C62.0919 31.9393 62.2532 32.108 62.4439 32.24C62.6492 32.372 62.8839 32.4673 63.1479 32.526C63.4119 32.5847 63.6905 32.614 63.9839 32.614C64.5999 32.614 65.1279 32.5333 65.5679 32.372C66.0079 32.196 66.3672 31.9833 66.6459 31.734C66.9245 31.47 67.1299 31.1913 67.2619 30.898C67.3939 30.59 67.4599 30.304 67.4599 30.04V28.126ZM71.6863 18.292H73.5563V34H71.6863V18.292ZM75.9032 18.292H77.7732V34H75.9032V18.292ZM87.9082 27.224C87.8789 26.784 87.7762 26.366 87.6002 25.97C87.4389 25.574 87.2115 25.2367 86.9182 24.958C86.6395 24.6647 86.3022 24.4373 85.9062 24.276C85.5249 24.1 85.0995 24.012 84.6302 24.012C84.1462 24.012 83.7062 24.1 83.3102 24.276C82.9289 24.4373 82.5989 24.6647 82.3202 24.958C82.0415 25.2513 81.8215 25.596 81.6602 25.992C81.4989 26.3733 81.4035 26.784 81.3742 27.224H87.9082ZM89.7122 30.392C89.4629 31.668 88.9129 32.6287 88.0622 33.274C87.2115 33.9193 86.1409 34.242 84.8502 34.242C83.9409 34.242 83.1489 34.0953 82.4742 33.802C81.8142 33.5087 81.2569 33.098 80.8022 32.57C80.3475 32.042 80.0029 31.4113 79.7682 30.678C79.5482 29.9447 79.4235 29.1453 79.3942 28.28C79.3942 27.4147 79.5262 26.6227 79.7902 25.904C80.0542 25.1853 80.4209 24.562 80.8902 24.034C81.3742 23.506 81.9389 23.0953 82.5842 22.802C83.2442 22.5087 83.9629 22.362 84.7402 22.362C85.7522 22.362 86.5882 22.5747 87.2482 23C87.9229 23.4107 88.4582 23.9387 88.8542 24.584C89.2649 25.2293 89.5435 25.9333 89.6902 26.696C89.8515 27.4587 89.9175 28.1847 89.8882 28.874H81.3742C81.3595 29.3727 81.4182 29.8493 81.5502 30.304C81.6822 30.744 81.8949 31.14 82.1882 31.492C82.4815 31.8293 82.8555 32.1007 83.3102 32.306C83.7649 32.5113 84.3002 32.614 84.9162 32.614C85.7082 32.614 86.3535 32.4307 86.8522 32.064C87.3655 31.6973 87.7029 31.14 87.8642 30.392H89.7122ZM93.7626 22.626H96.0286V24.276H93.7626V31.338C93.7626 31.558 93.7773 31.734 93.8066 31.866C93.8506 31.998 93.9239 32.1007 94.0266 32.174C94.1293 32.2473 94.2686 32.2987 94.4446 32.328C94.6353 32.3427 94.8773 32.35 95.1706 32.35H96.0286V34H94.5986C94.1146 34 93.6966 33.9707 93.3446 33.912C93.0073 33.8387 92.7286 33.714 92.5086 33.538C92.3033 33.362 92.1493 33.1127 92.0466 32.79C91.9439 32.4673 91.8926 32.042 91.8926 31.514V24.276H89.9566V22.626H91.8926V19.216H93.7626V22.626Z" fill="#121215"/>
</svg>
