<svg width="459" height="342" viewBox="0 0 459 342" fill="none" xmlns="http://www.w3.org/2000/svg">
<path d="M458.106 300.014H0V300.243H458.106V300.014Z" fill="#EBEBEB"/>
<path d="M102.304 307.692H71.959V307.921H102.304V307.692Z" fill="#EBEBEB"/>
<path d="M149.801 314.307H122.159V314.536H149.801V314.307Z" fill="#EBEBEB"/>
<path d="M87.1311 316.203H52.0859V316.432H87.1311V316.203Z" fill="#EBEBEB"/>
<path d="M412.204 315.709H397.637V315.938H412.204V315.709Z" fill="#EBEBEB"/>
<path d="M394.695 315.709H358.67V315.938H394.695V315.709Z" fill="#EBEBEB"/>
<path d="M256.841 307.582H229.053V307.811H256.841V307.582Z" fill="#EBEBEB"/>
<path d="M326.877 307.582H260.818V307.811H326.877V307.582Z" fill="#EBEBEB"/>
<path d="M217.152 259.151H40.2316C37.3455 259.151 35 256.805 35 253.919V5.23158C35 2.3455 37.3455 0 40.2316 0H217.152C220.038 0 222.384 2.3455 222.384 5.23158V253.919C222.384 256.805 220.038 259.151 217.152 259.151ZM40.2316 0.229053C37.4738 0.229053 35.2291 2.47377 35.2291 5.23158V253.919C35.2291 256.677 37.4738 258.922 40.2316 258.922H217.152C219.91 258.922 222.155 256.677 222.155 253.919V5.23158C222.155 2.47377 219.91 0.229053 217.152 0.229053H40.2316Z" fill="#EBEBEB"/>
<path d="M415.328 259.151H238.407C235.521 259.151 233.176 256.805 233.176 253.919V5.23158C233.176 2.3455 235.521 0 238.407 0H415.328C418.214 0 420.56 2.3455 420.56 5.23158V253.919C420.56 256.805 418.214 259.151 415.328 259.151ZM238.407 0.229053C235.65 0.229053 233.405 2.47377 233.405 5.23158V253.919C233.405 256.677 235.65 258.922 238.407 258.922H415.328C418.086 258.922 420.331 256.677 420.331 253.919V5.23158C420.331 2.47377 418.086 0.229053 415.328 0.229053H238.407Z" fill="#EBEBEB"/>
<path d="M268.807 193.559H242.447V300.014H268.807V193.559Z" fill="#E6E6E6"/>
<path d="M257.849 300.014H268.807V281.644H246.359L257.849 300.014Z" fill="#F5F5F5"/>
<path d="M78.4454 193.559H52.0859V300.014H78.4454V193.559Z" fill="#E6E6E6"/>
<path d="M268.798 193.559H68.8799V293.692H268.798V193.559Z" fill="#F5F5F5"/>
<path d="M260.763 224.298H76.9248V202.401H260.763V224.298ZM77.841 223.382H259.847V203.317H77.841V223.382Z" fill="#EBEBEB"/>
<path d="M79.8378 300.014H68.8799V281.644H91.3271L79.8378 300.014Z" fill="#F5F5F5"/>
<path d="M260.763 284.851H76.9248V232.672H260.763V284.851ZM77.841 283.934H259.847V233.589H77.841V283.934Z" fill="#EBEBEB"/>
<path d="M373.695 21.5952H165.366V165.862H373.695V21.5952Z" fill="#E6E6E6"/>
<path d="M377.524 21.5952H169.195V165.862H377.524V21.5952Z" fill="#F5F5F5"/>
<path d="M370.652 158.578V28.8791L176.076 28.8791V158.578H370.652Z" fill="white"/>
<path d="M370.644 158.578V28.8791H367.748V158.578H370.644Z" fill="#E6E6E6"/>
<path d="M374.675 40.4966H172.036V45.3892H374.675V40.4966Z" fill="#F5F5F5"/>
<g opacity="0.5">
<path d="M374.116 16.7759H365.889V177.012H374.116V16.7759Z" fill="#F0F0F0"/>
<path d="M363.662 16.7759H355.435V177.012H363.662V16.7759Z" fill="#F0F0F0"/>
<path d="M353.208 16.7759H344.98V177.012H353.208V16.7759Z" fill="#F0F0F0"/>
<path d="M342.764 16.7759H334.536V177.012H342.764V16.7759Z" fill="#F0F0F0"/>
<path d="M332.31 16.7759H324.082V177.012H332.31V16.7759Z" fill="#F0F0F0"/>
<path d="M321.856 16.7759H313.628V177.012H321.856V16.7759Z" fill="#F0F0F0"/>
<path d="M311.41 16.7759H303.183V177.012H311.41V16.7759Z" fill="#F0F0F0"/>
<path d="M300.956 16.7759H292.729V177.012H300.956V16.7759Z" fill="#F0F0F0"/>
<path d="M290.503 16.7759H282.275V177.012H290.503V16.7759Z" fill="#F0F0F0"/>
<path d="M280.049 16.7759H271.821V177.012H280.049V16.7759Z" fill="#F0F0F0"/>
<path d="M269.604 16.7759H261.376V177.012H269.604V16.7759Z" fill="#F0F0F0"/>
<path d="M259.149 16.7759H250.922V177.012H259.149V16.7759Z" fill="#F0F0F0"/>
<path d="M248.695 16.7759H240.468V177.012H248.695V16.7759Z" fill="#F0F0F0"/>
<path d="M238.242 16.7759H230.015V177.012H238.242V16.7759Z" fill="#F0F0F0"/>
<path d="M227.797 16.7759H219.569V177.012H227.797V16.7759Z" fill="#F0F0F0"/>
</g>
<path d="M117.503 38.8292H57.125V148.628H117.503V38.8292Z" fill="#F0F0F0"/>
<path d="M130.467 38.8292H61.0186V148.628H130.467V38.8292Z" fill="#F5F5F5"/>
<path d="M63.8496 41.4312L63.8496 146.026H127.636V41.4312H63.8496Z" fill="white"/>
<path d="M80.8457 62.2475V125.21C80.8457 126.606 81.9779 127.738 83.3745 127.738H108.103C109.5 127.738 110.632 126.606 110.632 125.21V62.2475C110.632 60.8509 109.5 59.7188 108.103 59.7188H83.3745C81.9779 59.7188 80.8457 60.8509 80.8457 62.2475Z" fill="#F5F5F5"/>
<path d="M351.743 130.414L364.094 160.85C363.737 248.889 367.713 253.965 367.75 269.11H336.571C335.453 195.419 346.374 211.984 351.743 130.414Z" fill="#EBEBEB"/>
<path d="M369.152 220.322C344.056 151.23 286.289 172.633 288.873 197.81C291.457 222.988 383.582 260.058 369.152 220.322Z" fill="#EBEBEB"/>
<path d="M359.66 260.159C345.972 215.631 309.562 222.905 309.562 243.364C309.562 263.824 367.53 285.767 359.66 260.159Z" fill="#EBEBEB"/>
<path d="M358.688 179.788C337.194 120.271 283.659 128.462 287.975 153.576C292.29 178.689 371.048 214.018 358.688 179.788Z" fill="#EBEBEB"/>
<path d="M358.835 153.09C360.823 112.539 320.675 95.8543 323.451 120.079C326.236 144.313 357.69 176.408 358.835 153.09Z" fill="#EBEBEB"/>
<path d="M355.839 194.613C364.323 144.643 415.778 125.64 410.033 153.924C404.279 182.207 350.965 223.354 355.839 194.613Z" fill="#EBEBEB"/>
<path d="M351.505 166.366C341.509 113.968 387.741 90.6868 389.079 115.947C390.416 141.207 357.259 196.5 351.505 166.366Z" fill="#EBEBEB"/>
<path d="M347.492 225.553C367.915 175.061 411.664 187.585 407.248 210.564C402.831 233.543 335.746 254.588 347.492 225.553Z" fill="#EBEBEB"/>
<path d="M357.57 260.809C357.112 228.229 386.687 219.809 387.035 238.683C387.383 257.557 357.835 279.546 357.57 260.809Z" fill="#EBEBEB"/>
<path d="M348.536 300.243C332.283 300.243 318.567 288.928 315.232 273.627C314.352 269.577 313.345 265.564 311.759 261.735L311.503 261.121H385.57L385.313 261.735C383.728 265.564 382.72 269.587 381.841 273.627C378.506 288.928 364.79 300.243 348.536 300.243Z" fill="#E0E0E0"/>
<path d="M229.053 341.39C327.163 341.39 406.697 336.747 406.697 331.019C406.697 325.291 327.163 320.647 229.053 320.647C130.942 320.647 51.4082 325.291 51.4082 331.019C51.4082 336.747 130.942 341.39 229.053 341.39Z" fill="#F5F5F5"/>
<path d="M118.528 145.669L117.951 144.954C120.315 143.039 122.844 141.28 125.473 139.722L125.941 140.51C123.348 142.04 120.856 143.772 118.538 145.66L118.528 145.669Z" fill="#266EFF"/>
<path d="M99.7099 171.854L98.8486 171.533C101.955 163.223 106.92 155.509 113.206 149.224L113.856 149.874C107.663 156.068 102.77 163.672 99.7099 171.854Z" fill="#266EFF"/>
<path d="M277.217 212.232C276.997 185.46 255.237 163.837 228.41 163.837C221.951 163.837 215.785 165.102 210.141 167.383C200.557 147.776 180.419 134.262 157.12 134.262C128.946 134.262 105.399 154.025 99.5448 180.43C73.0479 182.134 52.085 204.151 52.085 231.078C52.085 258.006 74.8162 281.845 102.852 281.845H264.399C284.272 281.845 300.388 265.729 300.388 245.857C300.388 230.492 290.758 217.39 277.217 212.222V212.232Z" fill="#266EFF"/>
<path d="M240.88 195.822H111.602C109.421 195.822 107.635 194.036 107.635 191.855C107.635 189.674 109.421 187.888 111.602 187.888H240.88C243.06 187.888 244.847 189.674 244.847 191.855C244.847 194.036 243.06 195.822 240.88 195.822Z" fill="#263238"/>
<path d="M221.383 249.512H131.109C123.751 249.512 117.769 243.529 117.769 236.172C117.769 228.815 123.751 222.832 131.109 222.832H221.383C228.74 222.832 234.723 228.815 234.723 236.172C234.723 243.529 228.74 249.512 221.383 249.512ZM131.109 223.748C124.255 223.748 118.685 229.319 118.685 236.172C118.685 243.025 124.255 248.596 131.109 248.596H221.383C228.236 248.596 233.807 243.025 233.807 236.172C233.807 229.319 228.236 223.748 221.383 223.748H131.109Z" fill="white"/>
<path d="M152.191 246.305H131.109C125.538 246.305 120.976 241.743 120.976 236.172C120.976 230.602 125.538 226.039 131.109 226.039H152.191C157.762 226.039 162.324 230.602 162.324 236.172C162.324 241.743 157.762 246.305 152.191 246.305Z" fill="white"/>
<path d="M244.571 118.814L227.429 191.855H125.161L153.765 69.9528L224.579 86.5638L244.571 118.814Z" fill="#266EFF"/>
<path opacity="0.8" d="M244.571 118.814L227.429 191.855H125.161L153.765 69.9528L224.579 86.5638L244.571 118.814Z" fill="#FAFAFA"/>
<path d="M231.231 132.384L153.554 114.16C152.436 113.894 151.74 112.777 152.006 111.659C152.271 110.541 153.389 109.845 154.507 110.11L232.184 128.334C233.301 128.6 233.998 129.717 233.732 130.835C233.466 131.953 232.348 132.649 231.231 132.384Z" fill="#266EFF"/>
<path d="M228.262 145.027L150.585 126.804C149.468 126.538 148.771 125.42 149.037 124.303C149.303 123.185 150.42 122.488 151.538 122.754L229.215 140.978C230.333 141.243 231.029 142.361 230.763 143.479C230.497 144.597 229.38 145.293 228.262 145.027Z" fill="#266EFF"/>
<path d="M225.294 157.671L147.618 139.448C146.5 139.182 145.804 138.064 146.069 136.946C146.335 135.829 147.453 135.132 148.571 135.398L226.247 153.621C227.365 153.887 228.061 155.005 227.795 156.123C227.53 157.24 226.412 157.937 225.294 157.671Z" fill="#266EFF"/>
<path d="M222.334 170.315L144.658 152.091C143.54 151.826 142.844 150.708 143.109 149.59C143.375 148.472 144.493 147.776 145.611 148.042L223.287 166.265C224.405 166.531 225.101 167.649 224.835 168.766C224.57 169.884 223.452 170.58 222.334 170.315Z" fill="#266EFF"/>
<path d="M188.48 175.711L141.68 164.735C140.562 164.469 139.866 163.352 140.132 162.234C140.397 161.116 141.515 160.42 142.633 160.685L189.433 171.662C190.551 171.927 191.247 173.045 190.982 174.163C190.716 175.281 189.598 175.977 188.48 175.711Z" fill="#266EFF"/>
<path d="M244.571 118.814L218.45 112.685L224.58 86.5638L244.571 118.814Z" fill="#266EFF"/>
<path d="M262.119 188.172L240.404 331.009H244.692L247.569 312.108H302.89L300.013 331.009H304.301L326.015 188.172H262.119ZM303.458 308.324H248.137L251.216 288.057H306.537L303.458 308.324ZM307.114 284.273H251.793L254.871 264.007H310.192L307.114 284.273ZM310.769 260.223H255.448L258.527 239.956H313.848L310.769 260.223ZM314.425 236.172H259.104L262.183 215.906H317.504L314.425 236.172ZM262.76 212.122L265.838 191.855H321.159L318.081 212.122H262.76Z" fill="#263238"/>
<path d="M334.948 188.172H271.052L292.766 331.009H297.054L294.177 312.108H349.498L352.375 331.009H356.663L334.948 188.172ZM275.899 191.855H331.219L334.298 212.122H278.977L275.899 191.855ZM279.554 215.906H334.875L337.954 236.172H282.633L279.554 215.906ZM283.21 239.956H338.531L341.609 260.223H286.288L283.21 239.956ZM286.866 264.007H342.187L345.265 284.273H289.944L286.866 264.007ZM293.6 308.324L290.521 288.057H345.842L348.921 308.324H293.6Z" fill="#263238"/>
<path opacity="0.4" d="M334.948 188.172H271.052L292.766 331.009H297.054L294.177 312.108H349.498L352.375 331.009H356.663L334.948 188.172ZM275.899 191.855H331.219L334.298 212.122H278.977L275.899 191.855ZM279.554 215.906H334.875L337.954 236.172H282.633L279.554 215.906ZM283.21 239.956H338.531L341.609 260.223H286.288L283.21 239.956ZM286.866 264.007H342.187L345.265 284.273H289.944L286.866 264.007ZM293.6 308.324L290.521 288.057H345.842L348.921 308.324H293.6Z" fill="white"/>
<path d="M307.572 49.1274C309.405 50.5383 311.017 51.9585 312.694 53.4153C314.352 54.8629 315.956 56.3838 317.532 57.9414C320.683 61.0473 323.689 64.3457 326.474 67.9464L327.5 69.3299L328.013 70.0262C328.306 70.4293 328.581 70.8783 328.792 71.2997C329.671 73.0222 329.937 74.6164 330.056 76.0457C330.249 78.8951 329.818 81.3048 329.277 83.6136C328.132 88.2039 326.41 92.2627 324.202 96.2574L319.52 94.3517C320.409 90.3661 321.206 86.1882 321.508 82.3309C321.655 80.4161 321.636 78.5195 321.343 77.0994C321.196 76.403 320.949 75.8808 320.793 75.7159C320.757 75.6701 320.729 75.6701 320.702 75.6426L320.207 75.0837L319.227 73.9568C316.515 70.9882 313.583 68.093 310.523 65.3077C307.499 62.5133 304.292 59.7188 301.214 57.1259L307.572 49.1549V49.1274Z" fill="#7F3E3B"/>
<path d="M321.37 92.4368L316.111 96.065L322.561 99.9498C322.561 99.9498 325.869 96.7888 324.449 93.8478L321.37 92.4368Z" fill="#7F3E3B"/>
<path d="M313.481 102.121L318.337 104.851L322.552 99.9497L316.102 96.065L313.481 102.121Z" fill="#7F3E3B"/>
<path d="M271.703 29.9877C271.859 30.5833 271.667 31.1422 271.273 31.2429C270.888 31.3437 270.448 30.9406 270.292 30.3542C270.137 29.7587 270.329 29.1998 270.723 29.099C271.108 28.9982 271.548 29.4014 271.703 29.9877Z" fill="#263238"/>
<path d="M271.712 31.1238C271.712 31.1238 271.244 34.8895 270.182 36.9143C271.483 37.6198 273.15 36.7219 273.15 36.7219L271.712 31.1238Z" fill="#630F0F"/>
<path d="M272.958 26.1671C272.885 26.1854 272.812 26.1854 272.738 26.158C271.245 25.5716 270.164 26.332 270.146 26.3412C269.981 26.4603 269.761 26.4237 269.642 26.2587C269.522 26.0938 269.568 25.8739 269.724 25.7548C269.779 25.7182 271.144 24.7653 272.995 25.4891C273.178 25.5624 273.27 25.7731 273.196 25.9564C273.151 26.0663 273.059 26.1488 272.949 26.1763L272.958 26.1671Z" fill="#263238"/>
<path d="M290.485 31.6461C291.337 37.235 292.537 45.8015 297.448 47.973C297.448 47.973 297.925 53.7818 288.231 57.2725C277.566 61.1115 281.231 53.8092 281.231 53.8092C286.554 50.3276 284.85 46.0581 282.376 42.3657L290.494 31.6461H290.485Z" fill="#7F3E3B"/>
<path d="M298.365 46.8094C298.393 45.0595 296.579 42.0268 294.774 42.2284C292.786 42.4483 285.199 45.2519 282.432 47.8081C279.665 50.3643 281.626 54.8446 281.626 54.8446L298.365 46.8094Z" fill="#263238"/>
<path d="M356.865 258.601C356.388 259.096 355.848 259.508 355.417 259.453C355.243 259.435 355.005 259.325 354.876 258.922C354.812 258.711 354.84 258.5 354.959 258.308C355.472 257.438 357.68 256.989 357.781 256.97C357.845 256.961 357.909 256.979 357.946 257.034C357.982 257.089 357.982 257.154 357.946 257.208C357.763 257.511 357.341 258.106 356.865 258.601ZM355.353 258.317C355.307 258.372 355.261 258.418 355.234 258.473C355.16 258.592 355.142 258.711 355.179 258.83C355.27 259.114 355.408 259.133 355.454 259.142C355.93 259.197 356.883 258.216 357.46 257.373C356.8 257.538 355.774 257.877 355.353 258.317Z" fill="#266EFF"/>
<path d="M357.928 257.236C357.928 257.236 357.891 257.273 357.864 257.273C357.103 257.511 355.115 257.456 354.675 256.833C354.593 256.723 354.492 256.485 354.73 256.173C354.877 255.972 355.088 255.862 355.353 255.825C356.352 255.706 357.864 256.943 357.928 256.998C357.974 257.034 357.992 257.089 357.983 257.154C357.983 257.181 357.965 257.209 357.937 257.236H357.928ZM355.024 256.311C355.024 256.311 354.987 256.347 354.978 256.366C354.849 256.531 354.904 256.613 354.932 256.65C355.188 257.016 356.59 257.181 357.452 257.044C356.993 256.705 356.022 256.072 355.381 256.146C355.234 256.164 355.115 256.219 355.024 256.311Z" fill="#266EFF"/>
<path d="M301.444 277.75C300.582 277.75 299.749 277.631 299.465 277.246C299.364 277.109 299.29 276.88 299.474 276.55C299.584 276.366 299.749 276.238 299.978 276.174C301.095 275.872 303.45 277.209 303.551 277.264C303.606 277.301 303.643 277.365 303.624 277.429C303.615 277.493 303.56 277.548 303.496 277.558C303.065 277.64 302.232 277.75 301.434 277.75H301.444ZM300.381 276.449C300.271 276.449 300.161 276.458 300.069 276.486C299.923 276.522 299.822 276.596 299.758 276.705C299.648 276.907 299.684 276.999 299.73 277.054C300.042 277.484 301.746 277.503 302.992 277.319C302.369 276.999 301.16 276.44 300.381 276.44V276.449Z" fill="#266EFF"/>
<path d="M303.477 277.567C303.477 277.567 303.431 277.567 303.412 277.548C302.597 277.182 300.994 275.725 301.113 274.965C301.14 274.791 301.268 274.562 301.708 274.516C302.029 274.479 302.331 274.571 302.588 274.791C303.44 275.496 303.623 277.31 303.632 277.384C303.632 277.439 303.614 277.493 303.568 277.53C303.541 277.548 303.504 277.558 303.477 277.558V277.567ZM301.837 274.836C301.837 274.836 301.772 274.836 301.745 274.836C301.461 274.864 301.443 274.983 301.433 275.02C301.36 275.478 302.45 276.623 303.284 277.118C303.202 276.586 302.954 275.505 302.395 275.038C302.221 274.901 302.047 274.827 301.846 274.827L301.837 274.836Z" fill="#266EFF"/>
<path d="M310.88 277.402H304.145L303.477 261.817H310.211L310.88 277.402Z" fill="#7F3E3B"/>
<path d="M364.809 254.57L358.588 256.842L350.672 242.879L356.902 240.607L364.809 254.57Z" fill="#7F3E3B"/>
<path d="M357.607 256.219L362.866 250.786C363.059 250.584 363.361 250.548 363.599 250.694L368.822 253.901C369.362 254.231 369.445 254.991 368.996 255.44C367.127 257.309 366.128 258.116 363.81 260.507C362.39 261.973 358.157 266.957 356.187 268.991C354.263 270.979 351.954 269.348 352.577 268.341C355.372 263.824 357.058 259.527 357.14 257.291C357.158 256.888 357.323 256.503 357.598 256.219H357.607Z" fill="#263238"/>
<path d="M304.192 276.623H311.54C311.815 276.623 312.053 276.816 312.117 277.081L313.446 283.064C313.583 283.687 313.116 284.274 312.475 284.264C309.827 284.219 305.988 284.063 302.662 284.063C298.768 284.063 297.064 284.274 292.492 284.274C289.725 284.274 288.965 281.479 290.119 281.223C295.387 280.068 298.017 279.949 302.57 277.145C303.065 276.843 303.615 276.623 304.192 276.623Z" fill="#263238"/>
<path d="M285.904 62.5041C284.869 65.1153 283.77 67.5433 282.634 70.0354C281.507 72.5092 280.288 74.9463 279.042 77.3834C276.495 82.2302 273.774 87.0036 270.384 91.6397C269.532 92.7941 268.615 93.9394 267.608 95.0755C267.104 95.6527 266.591 96.1841 265.986 96.7796C265.198 97.5309 264.438 98.0715 263.705 98.5388C262.239 99.4641 260.846 100.069 259.463 100.637C258.088 101.196 256.723 101.654 255.367 102.057C249.943 103.651 244.611 104.577 239.104 105.081L238.078 100.133C242.98 98.3555 247.964 96.5231 252.554 94.4708C253.69 93.9485 254.808 93.3988 255.853 92.8399C256.888 92.281 257.877 91.6672 258.61 91.09C258.977 90.8059 259.27 90.5219 259.426 90.3295C259.747 89.963 260.131 89.5141 260.48 89.0651C261.185 88.1581 261.881 87.1777 262.55 86.1424C263.915 84.1084 265.18 81.9003 266.398 79.6556C267.626 77.4109 268.799 75.1112 269.944 72.784C272.225 68.1388 274.433 63.3287 276.467 58.6377L285.904 62.5133V62.5041Z" fill="#7F3E3B"/>
<path d="M301.27 45.1144C310.936 44.3631 319.603 58.6835 319.603 58.6835L312.658 69.953C312.658 69.953 305.219 67.2226 298.933 61.7712C292.346 56.0632 294.673 45.6367 301.27 45.1236V45.1144Z" fill="#266EFF"/>
<path opacity="0.3" d="M300.665 57.181L310.826 70.86L310.368 71.4189C310.368 71.4189 306.868 68.6336 302.827 64.6939L300.674 57.181H300.665Z" fill="#121215"/>
<path d="M274.488 55.7883C273.956 60.5068 281.845 81.3781 283.677 106.134L319.501 102.607C319.245 97.8608 316.624 77.8965 311.887 55.3027C310.577 49.0725 305.749 44.2715 299.509 45.5267C299.454 45.5359 299.39 45.5542 299.335 45.5634C294.827 46.4887 288.341 48.0005 284.511 49.3656C281.258 50.5201 278.226 52.0043 276.485 52.9205C275.385 53.4978 274.634 54.5606 274.497 55.7975L274.488 55.7883Z" fill="#266EFF"/>
<path opacity="0.3" d="M278.116 73.123C278.721 75.6426 279.353 78.3729 279.976 81.2773C285.428 79.9855 284.374 67.9006 284.484 67.7449L278.116 73.123Z" fill="#121215"/>
<path d="M286.161 58.1246C288.91 67.5524 278.731 80.132 278.731 80.132L268.487 73.5353C268.487 73.5353 268.414 64.9046 271.694 58.1521C275.845 49.6038 284.2 51.3996 286.161 58.1246Z" fill="#266EFF"/>
<path d="M238.252 99.2626L234.139 98.7037L234.203 107.298C234.203 107.298 239.746 107.857 242.824 104.045L242.22 102.423C241.578 100.719 240.057 99.5099 238.252 99.2626Z" fill="#7F3E3B"/>
<path d="M227.074 100.683L229.704 107.683L234.202 107.298L234.138 98.7037L227.074 100.683Z" fill="#7F3E3B"/>
<path opacity="0.2" d="M303.477 261.826L303.852 270.585H310.586L310.211 261.826H303.477Z" fill="#121215"/>
<path opacity="0.2" d="M356.901 240.616L350.671 242.879L355.05 250.612L360.987 247.808L356.901 240.616Z" fill="#121215"/>
<path d="M291.136 23.6659C292.556 31.0597 293.757 35.311 291.045 39.9836C286.958 47.0202 277.118 45.9848 273.527 39.1682C270.293 33.0296 268.515 21.9709 274.892 17.2524C281.177 12.598 289.725 16.2721 291.146 23.6567L291.136 23.6659Z" fill="#7F3E3B"/>
<path d="M278.685 28.5951C274.178 30.849 274.077 23.6475 274.462 22.1266C272.767 23.7483 270.476 25.3883 266.317 23.5926C261.204 21.3845 262.652 15.6123 266.317 15.6948C266.317 15.6948 263.605 10.4724 269.587 9.9135C272.913 9.61115 276.853 11.0313 276.853 11.0313C276.853 11.0313 279.079 5.19501 284.503 8.0261C287.38 9.51953 289.662 13.9357 289.662 13.9357C289.662 13.9357 301.343 15.6673 295.003 21.7785C296.442 24.9119 295.681 35.1002 291.97 39.4614C290.349 41.3671 276.468 40.8082 278.685 28.5951Z" fill="#263238"/>
<path d="M287.636 16.9134C287.636 16.9134 289.752 13.9998 289.917 7.25647C294.865 12.6255 287.636 16.9134 287.636 16.9134Z" fill="#263238"/>
<path d="M280.874 28.1828C281.039 30.1435 280.397 32.1134 279.49 33.4694C278.116 35.5125 276.247 34.633 275.633 32.4799C275.083 30.5375 275.138 27.1475 276.998 25.8648C278.831 24.6004 280.681 25.9473 280.874 28.192V28.1828Z" fill="#7F3E3B"/>
<path d="M296.376 104.879C296.376 104.879 309.02 155.326 315.076 174.09C321.71 194.64 350.497 248.541 350.497 248.541L361.794 243.63C361.794 243.63 340.006 194.549 335.352 174.016C330.304 151.725 319.483 102.607 319.483 102.607L296.367 104.879H296.376Z" fill="#263238"/>
<path d="M347.163 244.831C347.117 244.849 350.864 250.126 350.864 250.126L363.554 244.519L360.988 239.269L347.163 244.821V244.831Z" fill="#266EFF"/>
<path opacity="0.3" d="M302.982 122.644C311.943 123.506 314.242 156.37 314.838 173.338C311.127 161.675 305.163 139.109 301.021 123.075C301.58 122.727 302.222 122.571 302.973 122.644H302.982Z" fill="#121215"/>
<path d="M283.668 106.134C283.668 106.134 285.125 157.919 287.864 178.277C290.714 199.45 301.25 267.177 301.25 267.177H312.648C312.648 267.177 310.018 198.809 308.47 177.892C306.784 155.087 307.224 103.825 307.224 103.825L283.677 106.143L283.668 106.134Z" fill="#263238"/>
<path d="M298.979 261.817C298.924 261.817 299.886 268.716 299.886 268.716L313.748 268.24L313.876 261.808H298.979V261.817Z" fill="#266EFF"/>
</svg>
